<?xml version="1.0" encoding="UTF-8" standalone="no"?>
<svg width="330px" height="330px" viewBox="0 0 330 330" version="1.1" xmlns="http://www.w3.org/2000/svg" xmlns:xlink="http://www.w3.org/1999/xlink" xmlns:sketch="http://www.bohemiancoding.com/sketch/ns">
    <title>Namecoin</title>
    <description>Created with Sketch (http://www.bohemiancoding.com/sketch)</description>
    <defs></defs>
    <g id="Page-1" stroke="none" stroke-width="1" fill="none" fill-rule="evenodd" sketch:type="MSPage">
        <g id="Imported-Layers" sketch:type="MSLayerGroup" transform="translate(1.000000, 1.000000)">
            <path d="M328.768,164.228 C328.768,255.149 255.061,328.855 164.14,328.855 C73.219,328.855 -0.488,255.149 -0.488,164.228 C-0.488,73.306 73.219,-0.4 164.14,-0.4 C255.061,-0.4 328.768,73.306 328.768,164.228" id="Fill-1" fill="#73C7EF" sketch:type="MSShapeGroup"></path>
            <path d="M293.816,164.229 C293.816,235.842 235.758,293.903 164.142,293.903 C92.525,293.903 34.464,235.842 34.464,164.229 C34.464,92.61 92.525,34.552 164.142,34.552 C235.758,34.552 293.816,92.61 293.816,164.229" id="Fill-2" fill="#73C7EF" sketch:type="MSShapeGroup"></path>
            <path d="M122.564,149.029 C122.166,150.438 121.77,151.82 121.386,153.206 C115.246,175.349 109.243,197.531 102.9,219.616 C100.401,228.317 94.091,233.423 85.34,235.506 C81.84,236.34 78.326,235.713 74.822,235.437 C73.033,235.297 71.251,235.029 69.46,234.956 C68.511,234.917 68.459,234.605 68.678,233.822 C71.172,224.913 73.651,216 76.12,207.084 C83.39,180.823 90.655,154.561 97.919,128.299 C100.709,118.21 103.253,108.046 106.351,98.052 C109.063,89.306 115.412,84.179 124.318,82.243 C127.167,81.624 130.048,82.023 132.909,82.271 C135.2,82.469 137.483,82.754 139.775,82.941 C140.529,83.003 140.968,83.327 141.383,83.94 C149.32,95.663 157.279,107.372 165.236,119.083 C178.693,138.889 192.152,158.696 205.615,178.499 C205.837,178.826 205.991,179.217 206.44,179.487 C207.245,176.597 208.04,173.749 208.831,170.899 C214.458,150.63 220.1,130.365 225.705,110.089 C228.135,101.296 235.856,94.445 244.858,93.239 C247.631,92.868 250.397,93.239 253.158,93.471 C255.212,93.644 257.255,93.941 259.309,94.105 C260.188,94.175 260.314,94.43 260.078,95.272 C257.529,104.363 255.023,113.466 252.51,122.567 C242.591,158.482 232.67,194.397 222.757,230.313 C220.184,239.636 210.244,246.913 200.57,246.527 C196.607,246.369 192.68,245.81 188.732,245.492 C188.226,245.452 188.05,245.146 187.823,244.811 C179.679,232.819 171.532,220.828 163.386,208.837 C150.024,189.17 136.662,169.503 123.295,149.839 C123.111,149.568 122.992,149.23 122.564,149.029 L122.564,149.029 Z M194.709,221.593 C194.986,221.336 194.992,220.979 195.078,220.669 C196.578,215.292 198.046,209.906 199.578,204.537 C199.845,203.604 199.726,202.914 199.176,202.105 C177.781,170.666 156.412,139.21 135.034,107.761 C134.835,107.467 134.712,107.093 134.328,106.934 C134.028,107.179 134.037,107.546 133.951,107.855 C132.435,113.298 130.951,118.75 129.413,124.187 C129.188,124.983 129.294,125.564 129.758,126.247 C151.18,157.748 172.584,189.263 193.994,220.772 C194.193,221.064 194.313,221.442 194.709,221.593 L194.709,221.593 Z" id="Fill-3" fill="#FFFFFF" sketch:type="MSShapeGroup"></path>
            <path d="M194.709,221.593 C194.313,221.442 194.193,221.064 193.994,220.772 C172.584,189.263 151.18,157.748 129.758,126.247 C129.294,125.564 129.188,124.983 129.413,124.187 C130.951,118.75 132.435,113.298 133.951,107.855 C134.037,107.546 134.028,107.179 134.328,106.934 C134.712,107.093 134.835,107.467 135.034,107.761 C156.412,139.21 177.781,170.666 199.176,202.105 C199.726,202.914 199.845,203.604 199.578,204.537 C198.046,209.906 196.578,215.292 195.078,220.669 C194.992,220.979 194.986,221.336 194.709,221.593" id="Fill-4" fill="#73C7EF" sketch:type="MSShapeGroup"></path>
        </g>
    </g>
</svg>