<?xml version="1.0" encoding="UTF-8" standalone="no"?>
<svg width="331px" height="330px" viewBox="0 0 331 330" version="1.1" xmlns="http://www.w3.org/2000/svg" xmlns:xlink="http://www.w3.org/1999/xlink" xmlns:sketch="http://www.bohemiancoding.com/sketch/ns">
    <title>NXT</title>
    <description>Created with Sketch (http://www.bohemiancoding.com/sketch)</description>
    <defs></defs>
    <g id="Page-1" stroke="none" stroke-width="1" fill="none" fill-rule="evenodd" sketch:type="MSPage">
        <g id="Imported-Layers" sketch:type="MSLayerGroup" transform="translate(1.000000, 1.000000)">
            <path d="M329.169,164.228 C329.169,255.149 255.462,328.855 164.541,328.855 C73.62,328.855 -0.087,255.149 -0.087,164.228 C-0.087,73.306 73.62,-0.4 164.541,-0.4 C255.462,-0.4 329.169,73.306 329.169,164.228" id="Fill-1" fill="#EED96D" sketch:type="MSShapeGroup"></path>
            <path d="M294.217,164.229 C294.217,235.842 236.159,293.903 164.543,293.903 C92.926,293.903 34.865,235.842 34.865,164.229 C34.865,92.61 92.926,34.552 164.543,34.552 C236.159,34.552 294.217,92.61 294.217,164.229" id="Fill-2" fill="#EED96D" sketch:type="MSShapeGroup"></path>
            <path d="M160.813,138.989 C178.116,150.621 195.463,162.191 212.682,173.947 C215.531,175.892 218.318,176.72 221.711,176.625 C228.338,176.439 234.974,176.524 241.605,176.585 C247.809,176.643 251.844,180.475 251.806,186.131 C251.767,191.825 247.82,195.382 241.438,195.399 C232.554,195.424 223.669,195.362 214.786,195.432 C212.17,195.453 209.959,194.717 207.79,193.251 C191.219,182.049 174.577,170.951 158.018,159.731 C155.946,158.327 153.919,157.635 151.42,157.748 C147.798,157.912 144.164,157.805 140.535,157.786 C135.105,157.759 131.616,155.318 130.368,150.708 C129.181,146.322 131.243,142.254 135.944,139.673 C136.253,139.503 136.501,139.22 136.777,138.989 L160.813,138.989" id="Fill-3" fill="#FFFFFF" sketch:type="MSShapeGroup"></path>
            <path d="M86.453,138.989 C104.055,150.835 121.678,162.65 139.232,174.568 C141.299,175.972 143.293,176.72 145.805,176.615 C149.801,176.448 153.812,176.488 157.813,176.6 C163.421,176.756 167.463,180.747 167.504,185.992 C167.546,191.366 163.37,195.343 157.534,195.394 C152.155,195.441 146.77,195.266 141.397,195.456 C137.959,195.578 135.144,194.523 132.337,192.616 C116.31,181.73 100.167,171.012 84.156,160.103 C81.639,158.388 79.172,157.584 76.167,157.748 C72.799,157.932 69.413,157.805 66.035,157.786 C60.704,157.756 57.035,155.17 55.891,150.665 C54.767,146.242 56.875,142.154 61.553,139.652 C61.869,139.483 62.13,139.212 62.417,138.989 L86.453,138.989" id="Fill-4" fill="#FFFFFF" sketch:type="MSShapeGroup"></path>
            <path d="M279.488,169.785 C278.033,172.419 276.49,174.914 273.42,176.043 C267.639,178.168 261.524,174.351 260.812,168.063 C260.715,167.198 260.77,166.314 260.766,165.439 C260.738,157.789 260.739,157.789 252.915,157.789 L216.897,157.789 C209.696,157.788 206.48,155.983 204.983,151.102 C203.491,146.241 205.274,142.733 211.137,138.989 L271.977,138.989 C275.766,140.207 278.266,142.715 279.488,146.5 L279.488,169.785" id="Fill-5" fill="#FFFFFF" sketch:type="MSShapeGroup"></path>
            <path d="M74.291,195.402 C71.165,195.402 68.038,195.469 64.915,195.387 C59.757,195.252 55.869,191.456 55.663,186.467 C55.456,181.478 59.03,176.944 64.066,176.71 C70.926,176.391 77.825,176.381 84.683,176.726 C89.678,176.978 93.385,181.739 93.06,186.552 C92.722,191.571 88.847,195.26 83.667,195.388 C80.543,195.465 77.416,195.402 74.291,195.402" id="Fill-6" fill="#FFFFFF" sketch:type="MSShapeGroup"></path>
        </g>
    </g>
</svg>