<?xml version="1.0" encoding="utf-8"?>
<!-- Generator: Adobe Illustrator 17.1.0, SVG Export Plug-In . SVG Version: 6.00 Build 0)  -->
<!DOCTYPE svg PUBLIC "-//W3C//DTD SVG 1.1//EN" "http://www.w3.org/Graphics/SVG/1.1/DTD/svg11.dtd">
<svg version="1.1" xmlns="http://www.w3.org/2000/svg" xmlns:xlink="http://www.w3.org/1999/xlink" x="0px" y="0px"
	 viewBox="-3 -3.25 106 106" enable-background="new -3 -3.25 106 106" xml:space="preserve">
<g id="Grid">
</g>
<g id="ppc">
	<g>
		<circle fill="#1ABC9C" cx="50" cy="49.75" r="50"/>
		<path fill="#1ABC9C" d="M89.384,49.75c0,21.75-17.633,39.384-39.384,39.384S10.615,71.5,10.615,49.75
			c0-21.752,17.634-39.385,39.385-39.385S89.384,27.998,89.384,49.75"/>
		<path fill="#FFFFFF" d="M73.43,65.394c-2.002,5.271-4.13,8.155-8.604,11.161c0.18-0.76,0.372-1.523,0.511-2.301
			c2.647-14.777-2.368-32.557-26.899-42.379c19.517,11.253,27.393,31.273,18.292,44.197C41.24,78.432,29.918,65.615,29.918,50.85
			c0,0-1.378-15.603,0-26.927C66.421,25.23,80.497,46.454,73.43,65.394z"/>
	</g>
</g>
</svg>
