<?xml version="1.0" encoding="UTF-8" standalone="no"?>
<svg width="330px" height="331px" viewBox="0 0 330 331" version="1.1" xmlns="http://www.w3.org/2000/svg" xmlns:xlink="http://www.w3.org/1999/xlink" xmlns:sketch="http://www.bohemiancoding.com/sketch/ns">
    <title>Primecoin</title>
    <description>Created with Sketch (http://www.bohemiancoding.com/sketch)</description>
    <defs></defs>
    <g id="Page-1" stroke="none" stroke-width="1" fill="none" fill-rule="evenodd" sketch:type="MSPage">
        <g id="Imported-Layers" sketch:type="MSLayerGroup" transform="translate(0.000000, 1.000000)">
            <path d="M329.256,164.503 C329.256,255.425 255.55,329.131 164.629,329.131 C73.707,329.131 0.001,255.425 0.001,164.503 C0.001,73.582 73.707,-0.124 164.629,-0.124 C255.55,-0.124 329.256,73.582 329.256,164.503" id="Fill-1" fill="#F7D441" sketch:type="MSShapeGroup"></path>
            <path d="M294.304,164.505 C294.304,236.118 236.247,294.179 164.63,294.179 C93.014,294.179 34.953,236.118 34.953,164.505 C34.953,92.885 93.014,34.828 164.63,34.828 C236.247,34.828 294.304,92.885 294.304,164.505" id="Fill-2" fill="#F7D441" sketch:type="MSShapeGroup"></path>
            <path d="M87.233,89.658 L87.233,159.998 C87.674,202.553 111.115,216.409 147.697,220.235 L147.697,231.813 L126.659,231.813 L126.659,247.024 L147.697,247.024 L147.697,264.164 L181.031,264.164 L181.031,247.024 L202.598,247.024 L202.598,231.813 L181.031,231.813 L181.031,220.273 C217.921,216.526 241.581,202.761 242.025,159.998 L242.025,89.658 L208.652,89.658 L208.652,159.998 C208.898,184.519 196.053,192.365 181.334,192.614 L181.031,192.614 L181.031,89.658 L147.697,89.658 L147.697,192.614 C133.078,192.284 120.361,184.386 120.605,159.998 L120.605,89.658 L87.233,89.658" id="Fill-3" fill="#FFFFFF" sketch:type="MSShapeGroup"></path>
        </g>
    </g>
</svg>