<?xml version="1.0" encoding="utf-8"?>
<!-- Generator: Adobe Illustrator 17.0.2, SVG Export Plug-In . SVG Version: 6.00 Build 0)  -->
<!DOCTYPE svg PUBLIC "-//W3C//DTD SVG 1.1//EN" "http://www.w3.org/Graphics/SVG/1.1/DTD/svg11.dtd">
<svg version="1.1" xmlns="http://www.w3.org/2000/svg" xmlns:xlink="http://www.w3.org/1999/xlink" x="0px" y="0px" width="106px"
	 height="106px" viewBox="-3 -3.2 106 106" style="enable-background:new -3 -3.2 106 106;" xml:space="preserve">
<style type="text/css">
	.st0{fill:#FFFFFF;}
</style>
<g id="Grid">
</g>
<g id="btc">
	<circle cx="50" cy="49.8" r="50"/>
	<g>
		<g>
			<path class="st0" d="M66.5,47.5c3.6-1.9,5.9-5.1,5.4-10.6c-0.7-7.4-7.1-9.9-15.3-10.6l0-10.3h-6.3l0,10c-1.7,0-3.3,0-5,0.1
				l0-10.1h-6.3l0,10.3c-1.4,0-2.7,0.1-4,0.1v0l-8.7,0l0,6.7c0,0,4.6-0.1,4.6,0c2.5,0,3.4,1.5,3.6,2.8l0,11.7c0.2,0,0.4,0,0.7,0
				c-0.2,0-0.4,0-0.7,0V64c-0.1,0.8-0.6,2.1-2.4,2.1c0.1,0.1-4.6,0-4.6,0l-1.2,7.5h8.2c1.5,0,3,0,4.5,0l0,10.4l6.3,0l0-10.3
				c1.7,0,3.4,0.1,5,0.1l0,10.3l6.3,0l0-10.4c10.6-0.6,18-3.3,18.9-13.2C76.3,52.5,72.5,48.9,66.5,47.5z M45.5,33.5
				c3.5,0,14.7-1.1,14.7,6.3c0,7.1-11.1,6.3-14.7,6.3V33.5z M45.5,66.1l0-13.8c4.3,0,17.6-1.2,17.6,6.9C63.1,67,49.7,66.1,45.5,66.1
				z"/>
		</g>
	</g>
</g>
</svg>
