<?xml version="1.0" encoding="utf-8"?>
<!-- Generator: Adobe Illustrator 17.0.2, SVG Export Plug-In . SVG Version: 6.00 Build 0)  -->
<!DOCTYPE svg PUBLIC "-//W3C//DTD SVG 1.1//EN" "http://www.w3.org/Graphics/SVG/1.1/DTD/svg11.dtd">
<svg version="1.1" xmlns="http://www.w3.org/2000/svg" xmlns:xlink="http://www.w3.org/1999/xlink" x="0px" y="0px" width="106px"
	 height="106px" viewBox="-3 -3.2 106 106" style="enable-background:new -3 -3.2 106 106;" xml:space="preserve">
<style type="text/css">
	.st0{fill:#FFFFFF;}
</style>
<g id="Grid">
</g>
<g id="nmc">
	<circle cx="50" cy="49.8" r="50"/>
	<g>
		<path class="st0" d="M36.7,44.9c-0.1,0.4-0.3,0.9-0.4,1.3c-2,7.1-3.9,14.1-5.9,21.1c-0.8,2.8-2.8,4.4-5.6,5.1
			c-1.1,0.3-2.2,0.1-3.3,0c-0.6,0-1.1-0.1-1.7-0.2c-0.3,0-0.3-0.1-0.2-0.4c0.8-2.8,1.6-5.7,2.4-8.5c2.3-8.4,4.6-16.7,6.9-25.1
			c0.9-3.2,1.7-6.4,2.7-9.6c0.9-2.8,2.9-4.4,5.7-5c0.9-0.2,1.8-0.1,2.7,0c0.7,0.1,1.5,0.2,2.2,0.2c0.2,0,0.4,0.1,0.5,0.3
			c2.5,3.7,5.1,7.5,7.6,11.2c4.3,6.3,8.6,12.6,12.9,18.9c0.1,0.1,0.1,0.2,0.3,0.3c0.3-0.9,0.5-1.8,0.8-2.7
			c1.8-6.5,3.6-12.9,5.4-19.4c0.8-2.8,3.2-5,6.1-5.4c0.9-0.1,1.8,0,2.6,0.1c0.7,0.1,1.3,0.1,2,0.2c0.3,0,0.3,0.1,0.2,0.4
			c-0.8,2.9-1.6,5.8-2.4,8.7c-3.2,11.4-6.3,22.9-9.5,34.3c-0.8,3-4,5.3-7.1,5.2c-1.3-0.1-2.5-0.2-3.8-0.3c-0.2,0-0.2-0.1-0.3-0.2
			c-2.6-3.8-5.2-7.6-7.8-11.5c-4.3-6.3-8.5-12.5-12.8-18.8C36.9,45.1,36.8,45,36.7,44.9z M59.7,68c0.1-0.1,0.1-0.2,0.1-0.3
			c0.5-1.7,0.9-3.4,1.4-5.1c0.1-0.3,0-0.5-0.1-0.8c-6.8-10-13.6-20-20.4-30c-0.1-0.1-0.1-0.2-0.2-0.3c-0.1,0.1-0.1,0.2-0.1,0.3
			c-0.5,1.7-1,3.5-1.4,5.2c-0.1,0.3,0,0.4,0.1,0.7c6.8,10,13.6,20.1,20.5,30.1C59.5,67.8,59.5,68,59.7,68z"/>
		<path d="M59.7,68c-0.1,0-0.2-0.2-0.2-0.3c-6.8-10-13.6-20.1-20.5-30.1c-0.1-0.2-0.2-0.4-0.1-0.7c0.5-1.7,1-3.5,1.4-5.2
			c0-0.1,0-0.2,0.1-0.3c0.1,0.1,0.2,0.2,0.2,0.3c6.8,10,13.6,20,20.4,30c0.2,0.3,0.2,0.5,0.1,0.8c-0.5,1.7-1,3.4-1.4,5.1
			C59.7,67.8,59.7,67.9,59.7,68z"/>
	</g>
</g>
</svg>
