<?xml version="1.0" encoding="utf-8"?>
<!-- Generator: Adobe Illustrator 17.0.2, SVG Export Plug-In . SVG Version: 6.00 Build 0)  -->
<!DOCTYPE svg PUBLIC "-//W3C//DTD SVG 1.1//EN" "http://www.w3.org/Graphics/SVG/1.1/DTD/svg11.dtd">
<svg version="1.1" xmlns="http://www.w3.org/2000/svg" xmlns:xlink="http://www.w3.org/1999/xlink" x="0px" y="0px" width="106px"
	 height="106px" viewBox="-3 -3.2 106 106" style="enable-background:new -3 -3.2 106 106;" xml:space="preserve">
<g id="Grid">
</g>
<g id="ppc-alt">
	<path d="M50,7.8c23.2,0,42,18.8,42,42s-18.8,42-42,42S8,72.9,8,49.8C8,26.6,26.8,7.8,50,7.8 M50-0.2c-27.6,0-50,22.4-50,50
		s22.4,50,50,50c27.6,0,50-22.4,50-50S77.6-0.2,50-0.2L50-0.2z"/>
	<path d="M66.1,23.2c-3.3-1.7-8-2.3-13.4-2.3c-0.8,0-1.5,0-2.3,0h-8.1h-9.1V66h-1.6v6.7h1.6v9.9h8.1v-9.9h0h1h1.4v9.9h6.7v-9.9h1.3
		V66h-1.3v-7.3l3.5,0c7.1,0,13.2,0.5,18.6-6.4c2.1-3.1,3.4-6.7,3.7-10.3C77,34.6,73.9,27,66.1,23.2z M43.8,66.9h-2.5V26.5h2.5V66.9z
		 M69.5,45.8c-0.9,2.3-1.8,3.6-3.8,4.9c0.1-0.3,0.2-0.7,0.2-1c1.2-6.5-1-14.3-11.8-18.6c8.6,4.9,12,13.7,8,19.4
		c-6.8,1-11.8-4.6-11.8-11.1V27.5C66.5,28.1,72.6,37.4,69.5,45.8z"/>
</g>
</svg>
