<?xml version="1.0" encoding="utf-8"?>
<!-- Generator: Adobe Illustrator 17.0.2, SVG Export Plug-In . SVG Version: 6.00 Build 0)  -->
<!DOCTYPE svg PUBLIC "-//W3C//DTD SVG 1.1//EN" "http://www.w3.org/Graphics/SVG/1.1/DTD/svg11.dtd">
<svg version="1.1" xmlns="http://www.w3.org/2000/svg" xmlns:xlink="http://www.w3.org/1999/xlink" x="0px" y="0px" width="106px"
	 height="106px" viewBox="-3 -3.2 106 106" style="enable-background:new -3 -3.2 106 106;" xml:space="preserve">
<style type="text/css">
	.st0{fill:#FFFFFF;}
</style>
<g id="Grid">
</g>
<g id="qrk-alt">
	<path d="M50,7.8c23.2,0,42,18.8,42,42s-18.8,42-42,42S8,72.9,8,49.8C8,26.6,26.8,7.8,50,7.8 M50-0.2c-27.6,0-50,22.4-50,50
		s22.4,50,50,50c27.6,0,50-22.4,50-50S77.6-0.2,50-0.2L50-0.2z"/>
	<circle class="st0" cx="50" cy="49.4" r="10.2"/>
	<path d="M85.8,37.3c-0.2,6.8-4.4,12.1-11,13.9c-2.9,0.8-6,1.5-8.4,3.4c-3.2,2.6-4.7,5.8-3.9,10.1c0.5,2.8,1.6,5.4,1.9,8.3
		c0.7,7.6-5.1,14.6-12.7,15.5c-8.6,1-16.8-5.9-16.1-15.5c0.1-2,0.8-3.8,1.4-5.7c1.1-3.4,1.1-6.7-0.9-9.9c-1.4-2.2-3.1-3.8-5.6-4.6
		c-1.8-0.5-3.6-1.1-5.4-1.6c-7.3-1.9-11.7-8.6-10.7-16c1-7.4,7.2-11.9,12.9-12.3c4.7-0.3,8.6,1.2,11.8,4.5c1.6,1.6,3.1,3.2,4.8,4.5
		c3.9,3,8.2,2.9,12-0.1c2-1.6,3.8-3.4,5.7-5.2c4.1-3.8,10.4-4.8,15.6-2.5C82.5,26.4,85.9,31.8,85.8,37.3z M60.3,49.4
		c0-5.7-4.5-10.3-10.1-10.3c-5.7,0-10.3,4.6-10.3,10.2c0,5.6,4.6,10.2,10.2,10.2C55.6,59.6,60.2,55.2,60.3,49.4z"/>
</g>
</svg>
