<?xml version="1.0" encoding="UTF-8" standalone="no"?>
<!-- Created with Inkscape (http://www.inkscape.org/) -->

<svg
   xmlns:dc="http://purl.org/dc/elements/1.1/"
   xmlns:cc="http://creativecommons.org/ns#"
   xmlns:rdf="http://www.w3.org/1999/02/22-rdf-syntax-ns#"
   xmlns:svg="http://www.w3.org/2000/svg"
   xmlns="http://www.w3.org/2000/svg"
   version="1.1"
   width="135"
   height="135"
   id="svg2"
   xml:space="preserve"><metadata
     id="metadata8"><rdf:RDF><cc:Work
         rdf:about=""><dc:format>image/svg+xml</dc:format><dc:type
           rdf:resource="http://purl.org/dc/dcmitype/StillImage" /><dc:title></dc:title></cc:Work></rdf:RDF></metadata><defs
     id="defs6"><clipPath
       id="clipPath16"><path
         d="M 0,0 108,0 108,108 0,108 0,0 z"
         id="path18" /></clipPath></defs><g
     transform="matrix(1.25,0,0,-1.25,0,135)"
     id="g10"><g
       transform="matrix(0.75,0,0,-0.75,5.9999849,795.27164)"
       id="layer1"><g
         transform="matrix(1.5,0,0,1.5,-1327.0087,127.15553)"
         id="g3307"><path
           d="m 952.14282,232.66591 a 60,60 0 1 1 -120,0 60,60 0 1 1 120,0 z"
           transform="matrix(0.66666667,0,0,0.66666667,332.57726,419.02716)"
           id="path3267"
           style="color:#000000;fill:#333333;fill-opacity:1;fill-rule:nonzero;stroke:none;stroke-width:1.5189873;marker:none;visibility:visible;display:inline;overflow:visible;enable-background:accumulate" /><g
           transform="translate(0.50000448,71.438667)"
           id="g3269"><path
             d="m 933.09475,480.56906 c -0.0852,4.72195 -1.22772,9.18191 -3.16144,13.18385 4.58572,0.34011 8.20628,4.16178 8.20628,8.83408 0,4.69465 -3.65664,8.54834 -8.27354,8.8565 1.96619,3.99946 3.11697,8.47246 3.2287,13.20628 10.62764,-1.71426 18.74439,-10.95503 18.74439,-22.06278 0,-11.10636 -8.1208,-20.30434 -18.74439,-22.01793 z"
             id="path3271"
             style="color:#000000;fill:#ffffff;stroke:none;stroke-width:0.5;marker:none;visibility:visible;display:inline;overflow:visible;enable-background:accumulate" /><path
             d="m 920.04542,505.63632 c -4.84027,3.52891 -10.71372,5.71732 -17.0852,6.03139 6.6991,0.77089 11.89431,6.38649 12.06278,13.25112 l 13.36323,0 c 0,-7.60384 -3.21535,-14.44493 -8.34081,-19.28251 z"
             id="path3273"
             style="color:#000000;fill:#ff6600;fill-opacity:1;stroke:none;stroke-width:0.5;marker:none;visibility:visible;display:inline;overflow:visible;enable-background:accumulate" /><path
             d="m 915.023,480.47937 c -0.17492,7.24219 -5.9585,13.0743 -13.18386,13.31838 l 0,13.2287 c 14.65464,0 26.54709,-11.89348 26.54709,-26.54708 l -13.36323,0 z"
             id="path3275"
             style="color:#000000;fill:#ff6600;fill-opacity:1;stroke:none;stroke-width:0.5;marker:none;visibility:visible;display:inline;overflow:visible;enable-background:accumulate" /></g></g></g></g></svg>