<?xml version="1.0" encoding="utf-8"?>
<!-- Generator: Adobe Illustrator 16.0.0, SVG Export Plug-In . SVG Version: 6.00 Build 0)  -->
<!DOCTYPE svg PUBLIC "-//W3C//DTD SVG 1.1//EN" "http://www.w3.org/Graphics/SVG/1.1/DTD/svg11.dtd">
<svg version="1.1" id="Layer_1" xmlns="http://www.w3.org/2000/svg" xmlns:xlink="http://www.w3.org/1999/xlink" x="0px" y="0px"
	 width="106px" height="106px" viewBox="0 0 106 106" enable-background="new 0 0 106 106" xml:space="preserve">
<g>
	<defs>
		<rect id="SVGID_1_" width="106" height="106"/>
	</defs>
	<clipPath id="SVGID_2_">
		<use xlink:href="#SVGID_1_"  overflow="visible"/>
	</clipPath>
	<path clip-path="url(#SVGID_2_)" fill="#616366" d="M103,53c0,27.614-22.386,50-50,50C25.386,103,3,80.614,3,53
		C3,25.386,25.386,3,53,3C80.614,3,103,25.386,103,53"/>
	<path clip-path="url(#SVGID_2_)" fill="#FFEC5F" d="M39.205,26.297v54.29c-2.987,0.104-6.592,0.31-10.814,0.618v-0.927
		c4.394-1.201,6.592-5.854,6.592-13.958V39.484c0-7.142-2.198-11.435-6.592-12.877V25.68C31.962,26.023,35.566,26.229,39.205,26.297
		z M43.018,80.587v-54.29l8.807-0.618c4.363,0,7.833,1.357,10.404,4.069c2.544,2.747,3.812,6.231,3.812,10.456
		c0,5.289-2.299,9.099-6.9,11.436c7.417,1.682,11.126,6.507,11.126,14.472c0,4.02-1.219,7.538-3.658,10.562
		c-2.474,3.021-6.454,4.531-11.951,4.531c-2.024,0-4.223-0.121-6.592-0.359C45.937,80.672,44.253,80.587,43.018,80.587z
		 M47.24,40.36v10.354h3.967c3.296,0,5.839-0.893,7.625-2.678c1.785-1.786,2.678-4.362,2.678-7.729c0-3.467-0.96-6.109-2.886-7.931
		c-1.923-1.786-4.223-2.678-6.901-2.678c-1.477,0-2.661,0.361-3.554,1.082C47.551,32.634,47.24,35.826,47.24,40.36z M52.394,54.369
		H47.24v9.272c0,6.49,0.705,10.593,2.114,12.311c1.202,0.927,3.004,1.39,5.41,1.39c4.015,0,6.882-1.168,8.6-3.501
		c1.65-2.336,2.473-5.067,2.473-8.191c0-2.505-0.533-4.652-1.595-6.438c-1.101-1.819-2.476-3.091-4.121-3.812
		C58.368,54.714,55.791,54.369,52.394,54.369z M66.766,49.992c2.092-2.749,3.142-6.011,3.142-9.787c0-2.987-0.584-5.665-1.752-8.035
		c-1.202-2.438-2.594-4.07-4.175-4.895c3.402,0.722,6.011,2.181,7.832,4.378c1.819,2.231,2.727,4.705,2.727,7.417
		c0,2.403-0.752,4.671-2.263,6.799C70.764,47.931,68.927,49.304,66.766,49.992z M69.337,79.145c3.161-3.33,4.739-7.589,4.739-12.774
		c0-5.562-1.646-10.062-4.944-13.495c6.524,2.37,9.787,6.732,9.787,13.083c0,3.127-0.91,5.906-2.729,8.346
		C74.37,76.741,72.086,78.355,69.337,79.145z"/>
</g>
</svg>
