<?xml version="1.0" encoding="utf-8"?>
<!-- Generator: Adobe Illustrator 16.0.0, SVG Export Plug-In . SVG Version: 6.00 Build 0)  -->
<!DOCTYPE svg PUBLIC "-//W3C//DTD SVG 1.1//EN" "http://www.w3.org/Graphics/SVG/1.1/DTD/svg11.dtd">
<svg version="1.1" id="Layer_1" xmlns="http://www.w3.org/2000/svg" xmlns:xlink="http://www.w3.org/1999/xlink" x="0px" y="0px"
	 width="106px" height="106px" viewBox="0 0 106 106" enable-background="new 0 0 106 106" xml:space="preserve">
<g>
	<defs>
		<rect id="SVGID_1_" width="106" height="106"/>
	</defs>
	<clipPath id="SVGID_2_">
		<use xlink:href="#SVGID_1_"  overflow="visible"/>
	</clipPath>
	<g clip-path="url(#SVGID_2_)">
		<path fill-rule="evenodd" clip-rule="evenodd" fill="#608449" d="M37.441,100.488l3.703-11.051c0,0-0.224-0.068-0.618-0.183
			l-0.076-0.021l-0.041-0.012l-0.001-0.001c0.714,0.274,0.196,0.076,0.354,0.137l-0.005-0.002l-0.012-0.005l-0.023-0.01
			c-0.062-0.025-0.128-0.054-0.195-0.082c-0.138-0.057-0.285-0.117-0.443-0.183c-0.315-0.131-0.671-0.28-1.06-0.44
			c-0.774-0.322-1.678-0.698-2.646-1.102c-0.688-0.398-1.423-0.811-2.167-1.208c-0.375-0.219-0.74-0.349-1.124-0.63
			c-0.38-0.261-0.755-0.515-1.118-0.763c-0.719-0.502-1.426-0.922-1.978-1.353c-1.078-0.898-1.797-1.496-1.797-1.496l-7.642,8.812
			c0,0,0.942,0.778,2.356,1.946c0.723,0.562,1.633,1.13,2.577,1.779c0.946,0.644,1.941,1.338,3.104,1.914
			c1.124,0.599,2.248,1.195,3.302,1.755c0.972,0.404,1.88,0.782,2.657,1.106c0.389,0.159,0.745,0.308,1.061,0.438
			c0.158,0.066,0.305,0.126,0.442,0.185c0.069,0.028,0.134,0.055,0.196,0.081l0.243,0.094l0.052,0.017l0.097,0.03
			C37.151,100.398,37.441,100.488,37.441,100.488z"/>
		<path fill-rule="evenodd" clip-rule="evenodd" fill="#608449" d="M71.762,99.684l-4.309-10.864c0,0-0.217,0.091-0.595,0.25
			c-0.367,0.186-0.941,0.317-1.609,0.529c-0.67,0.206-1.454,0.447-2.293,0.705c-0.859,0.173-1.775,0.358-2.694,0.544
			c-0.91,0.235-1.849,0.281-2.719,0.376c-0.873,0.07-1.684,0.229-2.387,0.213c-1.403,0.007-2.337,0.01-2.337,0.01l-0.149,11.662
			c0,0,1.222-0.008,3.055-0.02c0.918,0.005,1.978-0.171,3.117-0.268c1.138-0.124,2.36-0.211,3.549-0.495
			c1.195-0.245,2.392-0.491,3.511-0.721c1.095-0.332,2.116-0.641,2.989-0.907c0.872-0.275,1.613-0.468,2.096-0.696
			C71.48,99.8,71.762,99.684,71.762,99.684z"/>
		<path fill-rule="evenodd" clip-rule="evenodd" fill="#608449" d="M97.446,77.158l-10.417-5.391c0,0-0.101,0.185-0.275,0.507
			c-0.189,0.325-0.367,0.78-0.803,1.362c-0.804,1.141-1.767,2.742-3.034,4.114c-1.121,1.492-2.556,2.704-3.521,3.711
			c-0.489,0.5-0.99,0.815-1.296,1.086c-0.316,0.256-0.498,0.403-0.498,0.403l7.385,9.089c0,0,0.235-0.192,0.65-0.526
			c0.398-0.351,1.033-0.78,1.68-1.424c1.285-1.294,3.121-2.907,4.609-4.841c1.636-1.81,2.928-3.876,3.958-5.381
			c0.53-0.727,0.877-1.467,1.148-1.944C97.295,77.438,97.446,77.158,97.446,77.158z"/>
		<path fill-rule="evenodd" clip-rule="evenodd" fill="#608449" d="M19.924,15.558l7.775,8.761c0,0,0.727-0.584,1.818-1.461
			c0.272-0.22,0.565-0.46,0.876-0.713c0.336-0.219,0.691-0.45,1.059-0.688c0.741-0.465,1.491-1.029,2.305-1.486
			c0.827-0.438,1.654-0.874,2.429-1.284c0.379-0.223,0.766-0.396,1.144-0.535c0.373-0.153,0.725-0.296,1.049-0.43
			c0.648-0.27,1.188-0.495,1.565-0.653c0.186-0.087,0.342-0.126,0.447-0.158c0.105-0.031,0.162-0.047,0.162-0.047l-3.886-11.02
			c0,0-0.073,0.022-0.209,0.064c-0.137,0.042-0.339,0.098-0.583,0.206c-0.494,0.202-1.198,0.492-2.042,0.839
			c-0.422,0.175-0.88,0.364-1.364,0.565c-0.488,0.189-0.991,0.416-1.489,0.696c-1.009,0.535-2.085,1.104-3.161,1.674
			c-1.059,0.599-2.048,1.315-3.008,1.929c-0.476,0.315-0.936,0.619-1.372,0.909c-0.408,0.326-0.794,0.635-1.151,0.919
			C20.871,14.793,19.924,15.558,19.924,15.558z"/>
		<path fill-rule="evenodd" clip-rule="evenodd" fill="#608449" d="M3.575,45.55l11.593,1.773c0,0,0.178-0.913,0.446-2.285
			c0.063-0.342,0.132-0.715,0.206-1.109c0.117-0.383,0.24-0.788,0.367-1.207c0.127-0.418,0.257-0.852,0.39-1.291l0.197-0.666
			l0.098-0.334l0.048-0.168l0.025-0.085l0.012-0.041l0.003-0.011c-0.274,0.709-0.075,0.193-0.135,0.35l0.002-0.006l0.01-0.024
			c0.427-1.029,0.855-2.058,1.256-3.023c0.201-0.468,0.395-0.981,0.578-1.358c0.18-0.313,0.35-0.61,0.506-0.883
			c0.616-1.096,1-1.842,1-1.842l-10.105-5.952c0,0-0.601,1.114-1.502,2.785c-0.222,0.419-0.462,0.874-0.716,1.354
			c-0.219,0.461-0.388,0.914-0.596,1.401c-0.4,0.965-0.828,1.994-1.256,3.022l-0.094,0.245l-0.017,0.053l-0.033,0.108l-0.066,0.219
			l-0.132,0.434c-0.087,0.29-0.175,0.578-0.262,0.863c-0.172,0.572-0.341,1.135-0.505,1.68c-0.161,0.546-0.316,1.073-0.463,1.572
			c-0.101,0.513-0.196,0.997-0.283,1.444C3.804,44.357,3.575,45.55,3.575,45.55z"/>
		<path fill-rule="evenodd" clip-rule="evenodd" fill="#608449" d="M10.377,78.97l10.013-6.023c0,0-0.146-0.186-0.326-0.555
			c-0.193-0.361-0.468-0.877-0.799-1.495c-0.743-1.2-1.393-2.957-2.14-4.673c-0.308-0.883-0.555-1.784-0.827-2.616
			c-0.125-0.419-0.274-0.817-0.37-1.207c-0.079-0.394-0.154-0.764-0.224-1.106c-0.29-1.37-0.483-2.282-0.483-2.282L3.647,60.818
			c0,0,0.247,1.19,0.617,2.979c0.095,0.445,0.197,0.93,0.305,1.44c0.125,0.507,0.308,1.03,0.47,1.575
			c0.347,1.087,0.682,2.259,1.088,3.404c0.941,2.246,1.831,4.518,2.774,6.09C9.336,77.11,9.698,77.78,9.95,78.25
			C10.193,78.726,10.377,78.97,10.377,78.97z"/>
		<path fill-rule="evenodd" clip-rule="evenodd" fill="#608449" d="M102.521,43.256l-11.48,2.309c0,0,0.048,0.228,0.132,0.627
			c0.063,0.402,0.261,0.962,0.298,1.663c0.126,1.391,0.431,3.237,0.358,5.104c0.115,1.865-0.188,3.712-0.275,5.103
			c-0.025,0.701-0.221,1.261-0.274,1.664c-0.077,0.399-0.122,0.628-0.122,0.628l11.518,2.221c0,0,0.057-0.299,0.157-0.82
			c0.073-0.526,0.299-1.26,0.353-2.172c0.139-1.817,0.488-4.234,0.366-6.671c0.071-2.438-0.289-4.852-0.478-6.666
			c-0.066-0.913-0.295-1.645-0.381-2.17C102.585,43.555,102.521,43.256,102.521,43.256z"/>
		<path fill-rule="evenodd" clip-rule="evenodd" fill="#608449" d="M84.558,14.077l-7.289,9.104c0,0,0.722,0.595,1.804,1.488
			c0.543,0.446,1.076,1.074,1.706,1.681c0.619,0.622,1.305,1.263,1.86,2.02c0.592,0.726,1.181,1.451,1.735,2.131
			c0.484,0.731,0.938,1.414,1.326,1.999c0.391,0.583,0.737,1.057,0.905,1.433c0.191,0.361,0.302,0.568,0.302,0.568l10.228-5.658
			c0,0-0.146-0.268-0.398-0.737c-0.23-0.482-0.668-1.107-1.172-1.87c-0.51-0.761-1.104-1.646-1.739-2.597
			c-0.701-0.902-1.485-1.84-2.255-2.787c-0.74-0.974-1.617-1.824-2.426-2.637c-0.818-0.8-1.533-1.6-2.235-2.188
			C85.498,14.857,84.558,14.077,84.558,14.077z"/>
		<path fill-rule="evenodd" clip-rule="evenodd" fill="#608449" d="M52.106,3.12l0.281,11.661c0,0,0.936-0.008,2.339-0.021
			c0.699,0.065,1.514,0.141,2.387,0.222c0.438,0.039,0.889,0.078,1.348,0.118c0.457,0.057,0.912,0.176,1.373,0.26
			c0.918,0.188,1.842,0.344,2.7,0.532c0.843,0.257,1.629,0.497,2.303,0.703c0.338,0.1,0.647,0.192,0.922,0.273
			c0.138,0.04,0.266,0.078,0.385,0.112l0.045,0.013l0.011,0.003l0.005,0.001c0.322,0.124-0.434-0.167-0.354-0.137l0.003,0.001
			l0.025,0.01l0.095,0.04c0.063,0.026,0.123,0.051,0.18,0.075c0.453,0.188,0.713,0.295,0.713,0.295L71.339,6.52
			c0,0-0.26-0.107-0.712-0.295c-0.057-0.024-0.116-0.048-0.179-0.075l-0.097-0.04l-0.248-0.095l-0.056-0.017
			c-0.155-0.047-0.321-0.098-0.5-0.153c-0.355-0.107-0.757-0.23-1.195-0.363c-0.878-0.263-1.9-0.571-2.998-0.899
			c-1.115-0.253-2.321-0.468-3.52-0.707c-0.601-0.108-1.197-0.25-1.793-0.327c-0.6-0.057-1.189-0.114-1.76-0.168
			c-1.142-0.103-2.206-0.215-3.12-0.275C53.328,3.115,52.106,3.12,52.106,3.12z"/>
	</g>
	<g clip-path="url(#SVGID_2_)">
		<path fill-rule="evenodd" clip-rule="evenodd" fill="#CBE5BA" d="M54.323,102.954l-0.23-11.652c0,0-0.233,0.012-0.644,0.036
			l-0.079,0.006l-0.042,0.002h-0.002c0.765,0.019,0.211,0.006,0.379,0.01H53.7l-0.013-0.001l-0.025-0.001
			c-0.067-0.003-0.139-0.008-0.212-0.012c-0.148-0.007-0.308-0.015-0.478-0.022c-0.341-0.018-0.727-0.038-1.146-0.059
			c-0.838-0.043-1.815-0.093-2.862-0.147c-0.781-0.144-1.613-0.284-2.447-0.408c-0.427-0.08-0.814-0.079-1.27-0.216
			c-0.446-0.117-0.884-0.23-1.309-0.342c-0.846-0.23-1.653-0.389-2.317-0.608c-1.317-0.483-2.196-0.805-2.196-0.805l-4.232,10.87
			c0,0,1.149,0.416,2.873,1.04c0.87,0.286,1.918,0.515,3.025,0.809c1.108,0.288,2.279,0.607,3.567,0.759
			c1.259,0.186,2.519,0.369,3.7,0.542c1.052,0.054,2.033,0.104,2.875,0.147c0.42,0.02,0.805,0.039,1.147,0.057
			c0.171,0.009,0.33,0.016,0.478,0.024c0.075,0.004,0.145,0.007,0.212,0.011L53.329,103l0.055-0.002l0.102-0.005
			C54.02,102.968,54.323,102.954,54.323,102.954z"/>
		<path fill-rule="evenodd" clip-rule="evenodd" fill="#CBE5BA" d="M86.373,90.651L78.66,81.87c0,0-0.173,0.158-0.476,0.435
			c-0.283,0.299-0.779,0.616-1.338,1.04c-0.562,0.42-1.219,0.911-1.922,1.436c-0.751,0.452-1.552,0.935-2.354,1.419
			c-0.777,0.527-1.646,0.887-2.434,1.269c-0.799,0.359-1.509,0.781-2.176,1.003c-1.319,0.479-2.198,0.796-2.198,0.796l3.783,11.032
			c0,0,1.147-0.418,2.87-1.046c0.866-0.304,1.805-0.826,2.846-1.301c1.029-0.499,2.151-0.992,3.175-1.66
			c1.043-0.633,2.087-1.267,3.064-1.859c0.919-0.681,1.776-1.315,2.51-1.86c0.729-0.553,1.361-0.982,1.739-1.36
			C86.147,90.855,86.373,90.651,86.373,90.651z"/>
		<path fill-rule="evenodd" clip-rule="evenodd" fill="#CBE5BA" d="M102.982,60.799l-11.623-1.572c0,0-0.032,0.207-0.089,0.569
			c-0.069,0.37-0.083,0.858-0.298,1.553c-0.373,1.345-0.741,3.177-1.473,4.896c-0.554,1.782-1.497,3.406-2.067,4.679
			c-0.293,0.636-0.658,1.102-0.854,1.459c-0.212,0.348-0.334,0.547-0.334,0.547l10.012,6.075c0,0,0.157-0.26,0.436-0.714
			c0.258-0.465,0.711-1.083,1.104-1.906c0.774-1.651,1.961-3.788,2.712-6.109c0.932-2.255,1.453-4.635,1.917-6.398
			c0.255-0.863,0.332-1.677,0.428-2.218C102.935,61.112,102.982,60.799,102.982,60.799z"/>
		<path fill-rule="evenodd" clip-rule="evenodd" fill="#CBE5BA" d="M9.256,28.867l10.269,5.635c0,0,0.488-0.795,1.221-1.988
			c0.182-0.299,0.378-0.623,0.585-0.966c0.243-0.32,0.5-0.656,0.766-1.005c0.542-0.688,1.058-1.471,1.671-2.175
			c0.632-0.69,1.263-1.379,1.855-2.026c0.282-0.337,0.588-0.63,0.897-0.888c0.3-0.269,0.583-0.523,0.844-0.757
			c0.52-0.472,0.952-0.866,1.254-1.142c0.146-0.145,0.28-0.234,0.368-0.299c0.089-0.065,0.136-0.099,0.136-0.099l-7.367-9.07
			c0,0-0.062,0.045-0.175,0.131c-0.115,0.086-0.287,0.206-0.479,0.39c-0.396,0.356-0.962,0.866-1.641,1.477
			c-0.339,0.307-0.706,0.639-1.094,0.991c-0.396,0.342-0.793,0.725-1.167,1.157c-0.771,0.843-1.592,1.741-2.414,2.64
			c-0.796,0.92-1.486,1.927-2.184,2.829c-0.342,0.457-0.673,0.898-0.986,1.317c-0.275,0.444-0.535,0.865-0.775,1.253
			C9.89,27.828,9.256,28.867,9.256,28.867z"/>
		<path fill-rule="evenodd" clip-rule="evenodd" fill="#CBE5BA" d="M3.949,62.611l11.514-2.229c0,0-0.14-0.92-0.348-2.302
			c-0.056-0.344-0.116-0.718-0.179-1.114c-0.019-0.399-0.039-0.822-0.06-1.26c-0.021-0.437-0.044-0.889-0.067-1.347l-0.039-0.693
			l-0.02-0.348l-0.011-0.175l-0.005-0.089l-0.003-0.043l0-0.011c-0.02,0.76-0.005,0.207-0.009,0.375v-0.007l0.001-0.026
			c0.056-1.113,0.113-2.226,0.166-3.27c0.032-0.508,0.042-1.057,0.087-1.473c0.063-0.355,0.124-0.692,0.18-1.001
			c0.211-1.24,0.322-2.072,0.322-2.072L3.959,43.321c0,0-0.191,1.251-0.478,3.127c-0.068,0.469-0.141,0.978-0.219,1.516
			c-0.051,0.508-0.058,0.991-0.09,1.52c-0.052,1.043-0.109,2.156-0.166,3.269L3,53.016l0.002,0.056l0.005,0.113l0.011,0.229
			l0.021,0.453c0.015,0.302,0.03,0.603,0.044,0.9c0.031,0.597,0.061,1.184,0.089,1.752c0.032,0.568,0.063,1.117,0.093,1.637
			c0.078,0.517,0.151,1.005,0.219,1.455C3.764,61.411,3.949,62.611,3.949,62.611z"/>
		<path fill-rule="evenodd" clip-rule="evenodd" fill="#CBE5BA" d="M21.598,91.795L29,82.754c0,0-0.2-0.125-0.494-0.412
			c-0.303-0.275-0.736-0.669-1.255-1.14c-1.103-0.88-2.307-2.316-3.587-3.681c-0.586-0.728-1.123-1.493-1.659-2.186
			c-0.259-0.353-0.534-0.678-0.754-1.012c-0.207-0.345-0.403-0.668-0.583-0.967c-0.734-1.193-1.223-1.987-1.223-1.987L9.154,76.965
			c0,0,0.633,1.038,1.583,2.598c0.239,0.388,0.498,0.81,0.772,1.254c0.288,0.436,0.636,0.866,0.973,1.325
			c0.692,0.907,1.402,1.897,2.17,2.84c1.642,1.799,3.244,3.638,4.661,4.802c0.679,0.61,1.245,1.12,1.641,1.478
			C21.342,91.627,21.598,91.795,21.598,91.795z"/>
		<path fill-rule="evenodd" clip-rule="evenodd" fill="#CBE5BA" d="M96.357,27.165l-10.035,6.036c0,0,0.122,0.198,0.336,0.546
			c0.194,0.357,0.568,0.818,0.84,1.465c0.586,1.268,1.494,2.903,2.054,4.686c0.736,1.717,1.072,3.559,1.458,4.898
			c0.212,0.668,0.216,1.262,0.301,1.659c0.062,0.402,0.097,0.633,0.097,0.633L103,45.305c0,0-0.047-0.3-0.128-0.825
			c-0.107-0.521-0.143-1.287-0.398-2.164c-0.48-1.758-0.965-4.151-1.899-6.405c-0.753-2.319-1.904-4.471-2.691-6.116
			c-0.37-0.837-0.831-1.45-1.089-1.916C96.518,27.425,96.357,27.165,96.357,27.165z"/>
		<path fill-rule="evenodd" clip-rule="evenodd" fill="#CBE5BA" d="M69.624,5.729l-3.801,11.026c0,0,0.88,0.318,2.199,0.794
			c0.661,0.237,1.374,0.649,2.172,1.009c0.792,0.377,1.653,0.75,2.432,1.276c0.801,0.485,1.6,0.969,2.351,1.423
			c0.702,0.525,1.359,1.016,1.921,1.436c0.564,0.418,1.05,0.747,1.335,1.045c0.302,0.276,0.476,0.434,0.476,0.434l7.728-8.769
			c0,0-0.228-0.204-0.623-0.56c-0.379-0.377-1.001-0.818-1.732-1.366c-0.736-0.545-1.593-1.18-2.512-1.86
			c-0.964-0.614-2.018-1.233-3.061-1.866c-1.024-0.668-2.137-1.174-3.172-1.667c-1.039-0.478-1.981-0.991-2.841-1.308
			C70.772,6.147,69.624,5.729,69.624,5.729z"/>
		<path fill-rule="evenodd" clip-rule="evenodd" fill="#CBE5BA" d="M35.378,6.328l4.188,10.887c0,0,0.878-0.323,2.195-0.807
			c0.68-0.173,1.473-0.376,2.322-0.594c0.425-0.111,0.863-0.226,1.309-0.342c0.45-0.1,0.919-0.142,1.381-0.218
			c0.928-0.131,1.85-0.296,2.722-0.407c0.88-0.042,1.701-0.08,2.405-0.113c0.352-0.02,0.674-0.037,0.96-0.053
			c0.143-0.008,0.276-0.016,0.4-0.023l0.046-0.003l0.012,0l0.005,0c0.345,0.008-0.464-0.012-0.38-0.01l0.003,0l0.027,0.001
			l0.103,0.005c0.068,0.003,0.133,0.007,0.194,0.01c0.49,0.024,0.771,0.039,0.771,0.039l0.593-11.64c0,0-0.28-0.013-0.77-0.038
			c-0.062-0.003-0.126-0.006-0.193-0.01l-0.104-0.005L53.301,3l-0.059,0.002c-0.162,0.008-0.335,0.016-0.521,0.024
			c-0.372,0.019-0.791,0.038-1.248,0.061c-0.915,0.047-1.982,0.102-3.125,0.161c-1.136,0.137-2.344,0.34-3.552,0.518
			c-0.603,0.1-1.212,0.168-1.799,0.296c-0.584,0.148-1.158,0.293-1.714,0.434c-1.109,0.287-2.15,0.54-3.031,0.791
			C36.528,5.912,35.378,6.328,35.378,6.328z"/>
	</g>
	<path clip-path="url(#SVGID_2_)" fill="#F0FFE6" d="M98.832,53c0,25.312-20.521,45.832-45.832,45.832
		C27.688,98.832,7.167,78.312,7.167,53C7.167,27.688,27.688,7.167,53,7.167C78.312,7.167,98.832,27.688,98.832,53"/>
	<path clip-path="url(#SVGID_2_)" fill="#CCD68E" d="M91.333,53c0,21.17-17.163,38.333-38.333,38.333
		C31.83,91.333,14.667,74.17,14.667,53c0-21.17,17.163-38.333,38.333-38.333C74.17,14.667,91.333,31.83,91.333,53"/>
	<path clip-path="url(#SVGID_2_)" fill="#79AB5D" d="M89.44,62.684c-0.22,0.355-0.286,0.375-0.363,0.112
		c-0.054-0.184-0.225-0.282-0.393-0.231c-0.287,0.085-1.361,1.247-1.767,1.909c-0.146,0.243-0.259,0.239-0.453-0.016
		c-0.143-0.184-0.312-0.292-0.378-0.24c-0.301,0.244-1.923,2.447-2.116,2.874c-0.199,0.439-0.233,0.444-0.448,0.068
		c-0.129-0.226-0.298-0.346-0.375-0.267c-1.134,1.141-2.118,2.334-2.261,2.741c-0.159,0.453-0.2,0.479-0.379,0.247
		c-0.24-0.316-0.575,0.027-2.437,2.525c-0.7,0.938-1.489,1.941-1.756,2.229c-0.439,0.479-0.438,0.428,0.038-0.609
		c0.285-0.624,1.489-2.763,2.675-4.752c2.475-4.162,2.879-4.952,2.961-5.815c0.034-0.344,0.504-1.34,1.051-2.217
		c0.543-0.877,0.957-1.639,0.92-1.693c-0.291-0.422,0.05-1.126,1.163-2.416c0.824-0.955,1.266-1.632,1.317-2.019
		c0.071-0.561,0.054-0.588-0.445-0.678c-0.636-0.115-0.646-0.091,0.908-2.497c1.117-1.729,1.315-2.623,0.557-2.512
		c-0.617,0.091-0.587-0.157,0.13-1.027c1.576-1.915,1.843-3.338,0.627-3.337c-0.505,0-0.555-0.035-0.318-0.221
		c0.359-0.285,1.486-2.577,1.676-3.35c-0.065-0.208-0.141-0.41-0.209-0.617c-0.064-0.024-0.144-0.044-0.243-0.062
		c-0.444-0.081-0.465-0.11-0.258-0.42c0.08-0.121,0.146-0.234,0.218-0.351c-1.224-3.411-2.923-6.594-5.008-9.479
		c-0.273,0.288-1.089,3.03-1.106,3.74c-0.014,0.53-0.015,0.531-0.548,0.248c-0.294-0.155-0.601-0.233-0.682-0.171
		c-0.24,0.186-0.882,4.012-0.74,4.407c0.206,0.559-0.072,0.619-0.749,0.161c-0.338-0.229-0.677-0.367-0.752-0.308
		c-0.193,0.148-0.361,2.114-0.285,3.325l0.061,0.991l-0.579-0.359c-0.319-0.197-0.642-0.312-0.717-0.255
		c-0.214,0.166-0.323,2.212-0.167,3.172l0.141,0.869l-0.6-0.078c-0.33-0.042-0.606-0.023-0.612,0.044
		c-0.03,0.314,0.132,3.964,0.186,4.207c0.038,0.164-0.02,0.234-0.142,0.177c-0.824-0.385-0.894-0.34-0.951,0.606
		c-0.03,0.511,0.033,1.413,0.142,2.006c0.186,1.005,0.169,1.067-0.257,0.957c-0.411-0.108-0.45-0.085-0.411,0.257
		c0.025,0.207,0.049,0.987,0.058,1.73c0.007,0.744,0.096,1.545,0.198,1.78c0.216,0.504,0.144,0.596-0.346,0.454
		c-0.302-0.086-0.361,0.175-0.358,1.549c0.006,1.416,0.205,3.265,0.449,4.153c0.052,0.185-0.023,0.225-0.278,0.143
		c-0.447-0.143-0.479,0.09-0.343,2.531c0.091,1.623-0.141,4.502-0.591,7.306c-0.229,1.434-0.594-4.771-0.462-7.875
		c0.056-1.297,0.022-2.599-0.071-2.896c-0.094-0.296,0.028-1.455,0.271-2.575c0.243-1.121,0.36-2.07,0.259-2.108
		s-0.147-0.171-0.101-0.294c0.127-0.336-0.113-0.548-0.384-0.34c-0.132,0.102-0.26,0.156-0.284,0.125
		c-0.024-0.033,0.088-1.059,0.25-2.281c0.296-2.24,0.188-3.282-0.301-2.905c-0.442,0.34-0.471-0.054-0.128-1.799
		c0.187-0.943,0.286-1.995,0.224-2.339c-0.105-0.588-0.14-0.618-0.538-0.473c-0.382,0.139-0.392-0.045-0.104-1.9
		c0.379-2.41,0.329-3.062-0.223-2.979c-0.315,0.046-0.339-0.142-0.155-1.224c0.12-0.704,0.243-1.355,0.273-1.447
		c0.073-0.227-0.084-1.107-0.231-1.3c-0.063-0.083-0.339-0.056-0.61,0.062l-0.49,0.214l0.255-1.015
		c0.417-1.671,0.172-3.092-0.45-2.613c-0.182,0.141-0.353,0.225-0.381,0.187c-0.026-0.036,0.044-0.746,0.158-1.578
		c0.259-1.869,0.09-2.432-0.631-2.116l-0.509,0.221l0.171-1.445c0.092-0.795,0.125-1.81,0.071-2.254l-0.096-0.809l-0.676,0.263
		l-0.676,0.263l0.175-1.527c0.248-2.185-0.021-3.277-0.683-2.768c-0.728,0.561-0.947,0.477-0.951-0.368
		c-0.006-1.244-0.429-3.372-0.753-3.791c-0.24-0.312-0.374-0.319-0.742-0.036l-0.447,0.346L64.8,19.154
		c-0.177-0.923-0.483-1.886-0.679-2.141c-0.325-0.423-0.389-0.424-0.695-0.036c-0.187,0.234-0.356,0.339-0.376,0.231
		c-0.105-0.497-0.197-0.919-0.28-1.28c-1.563-0.411-3.168-0.719-4.805-0.93c0.071,0.209-0.082,0.306-0.457,0.257
		c-0.251-0.032-0.268,0.197-0.072,0.962c0.143,0.553,0.395,1.177,0.559,1.392c0.291,0.376,0.28,0.39-0.296,0.434
		c-0.577,0.044-0.59,0.062-0.423,0.619c0.096,0.314,0.371,0.916,0.61,1.337c0.42,0.734,0.419,0.763-0.068,0.724
		c-0.478-0.038-0.506-0.013-0.504,0.444c0.004,0.598,0.422,1.699,0.872,2.285c0.379,0.494,0.305,0.609-0.398,0.615
		c-0.269,0.002-0.544,0.047-0.613,0.099c-0.19,0.148,0.612,2.044,1.233,2.915c0.604,0.847,0.595,0.908-0.131,0.915
		c-0.266,0.002-0.534,0.042-0.593,0.086c-0.138,0.107,0.797,2.006,1.326,2.693c0.449,0.584,0.301,0.84-0.451,0.778
		c-0.544-0.043-0.545-0.068,0.026,1.281c0.177,0.42,0.529,1.034,0.784,1.365l0.459,0.601l-0.618,0.046
		c-0.525,0.041-0.613,0.098-0.585,0.381c0.043,0.417,0.699,1.809,1.439,3.045l0.562,0.94l-0.834,0.004l-0.836,0.004l0.306,0.733
		c0.167,0.404,0.704,1.353,1.193,2.109l0.889,1.374l-0.643,0.088c-0.353,0.048-0.65,0.151-0.659,0.229
		c-0.011,0.079,0.479,0.983,1.093,2.008c0.827,1.386,1.044,1.885,0.844,1.939c-0.146,0.04-0.396,0.11-0.553,0.154
		c-0.415,0.114-0.205,0.608,1.036,2.444l1.105,1.628l-0.551,0.042c-0.302,0.024-0.54,0.12-0.529,0.215
		c0.027,0.248,1.645,2.8,2.208,3.489c0.467,0.567,0.362,1.044-0.184,0.838c-0.121-0.046-0.324-0.004-0.449,0.093
		c-0.169,0.13-0.069,0.386,0.383,0.974c0.337,0.436,0.541,0.849,0.452,0.916c-0.088,0.068-0.274-0.028-0.417-0.214
		c-0.214-0.278-0.312-0.266-0.578,0.072c-0.176,0.222-0.345,0.374-0.374,0.336c-0.03-0.039-0.206-0.786-0.393-1.661
		c-0.391-1.846-0.899-2.699-1.3-2.183c-0.14,0.182-0.28,0.295-0.313,0.252c-0.032-0.043-0.211-0.777-0.395-1.635
		c-0.186-0.856-0.469-1.828-0.627-2.157c-0.27-0.552-0.323-0.575-0.703-0.283c-0.225,0.174-0.42,0.297-0.438,0.274
		c-0.015-0.023-0.246-0.842-0.516-1.819c-0.27-0.976-0.671-2.015-0.896-2.307c-0.391-0.513-0.419-0.514-0.816-0.041
		c-0.226,0.269-0.43,0.405-0.449,0.303c-0.784-3.852-1.422-5.107-2.062-4.065c-0.167,0.268-0.339,0.484-0.388,0.478
		c-0.046-0.007-0.205-0.627-0.355-1.379c-0.15-0.755-0.514-1.753-0.807-2.221l-0.533-0.853l-0.371,0.565
		c-0.485,0.743-0.624,0.692-0.744-0.266c-0.141-1.143-0.819-3.055-1.308-3.69c-0.407-0.527-0.432-0.53-0.836-0.048
		c-0.371,0.442-0.428,0.453-0.515,0.1c-0.306-1.231-1.052-3.188-1.259-3.316c-0.168-0.102-0.396,0.011-0.729,0.367l-0.484,0.515
		l-0.291-0.882c-0.16-0.486-0.606-1.373-0.99-1.97c-0.571-0.886-0.729-1.04-0.858-0.831c-0.612,0.989-0.734,1.09-0.84,0.689
		c-0.224-0.866-0.912-2.341-1.363-2.925l-0.477-0.62l-0.485,0.543c-0.469,0.524-0.488,0.526-0.568,0.046
		c-0.045-0.275-0.512-1.135-1.037-1.914l-0.955-1.413l-0.351,0.442c-0.323,0.409-0.362,0.407-0.499-0.021
		c-0.082-0.257-0.479-0.894-0.883-1.42c-0.662-0.859-0.764-0.927-1.028-0.678c-0.278,0.259-0.353,0.197-1.223-1.049
		c-0.862-1.23-0.942-1.302-1.151-1.001c-0.157,0.225-0.242,0.238-0.538-0.16c-0.844,0.526-1.667,1.082-2.465,1.67
		c0.172,0.276,0.104,0.346-0.167,0.445c-0.393,0.142-0.375,0.196,0.328,1c0.527,0.603,0.672,0.871,0.501,0.921
		c-0.346,0.103-0.155,0.563,0.667,1.633c0.611,0.793,0.67,0.952,0.391,1.035c-0.182,0.054-0.317,0.247-0.3,0.429
		c0.041,0.445,0.938,1.596,1.527,1.958c0.472,0.29,0.469,0.298-0.181,0.629l-0.658,0.335l1.226,1.432
		c0.674,0.789,1.374,1.518,1.555,1.62c0.285,0.158,0.241,0.244-0.31,0.618l-0.641,0.436l0.635,0.776
		c0.349,0.428,0.982,1.003,1.403,1.279l0.769,0.501l-0.537,0.334c-0.787,0.49-0.4,1,1.756,2.317
		c0.264,0.161,0.225,0.232-0.259,0.472c-0.548,0.27-0.554,0.302-0.153,0.814c0.229,0.294,0.911,0.82,1.516,1.169l1.097,0.635
		l-0.65,0.332l-0.65,0.331l0.8,0.82c0.702,0.72,1.88,1.588,2.999,2.209c0.325,0.182,0.292,0.233-0.408,0.604l-0.766,0.406
		l0.523,0.448c0.504,0.433,2.502,1.793,3.132,2.133c0.251,0.135,0.209,0.22-0.232,0.466c-0.397,0.223-0.49,0.366-0.354,0.542
		c0.26,0.337,2.42,1.851,3.096,2.167l0.562,0.266l-0.573,0.44c-0.548,0.424-0.553,0.459-0.123,0.819
		c0.382,0.322,2.39,1.604,3.488,2.227c0.274,0.156,0.247,0.253-0.163,0.568c-0.271,0.21-0.433,0.459-0.358,0.556
		c0.327,0.426,2.195,1.754,3.114,2.217c0.554,0.277,1.024,0.528,1.045,0.554c0.021,0.028-0.148,0.194-0.377,0.37
		c-0.389,0.3-0.381,0.351,0.122,0.802c0.296,0.263,1.342,0.953,2.322,1.529l1.782,1.051l-0.437,0.22
		c-0.241,0.124-0.392,0.28-0.335,0.355c0.203,0.263,3.736,2.529,3.996,2.563c0.167,0.021,0.23,0.164,0.17,0.383
		c-0.084,0.303,0.056,0.48,1.066,1.353c0.64,0.554,1.784,1.438,2.543,1.968c0.78,0.544,1.839,1.492,2.435,2.18l1.052,1.215
		l-0.799-0.396c-2.104-1.042-4.75-2.694-6.447-4.029c-2.363-1.854-3.266-2.44-3.231-2.102c0.054,0.508-0.248,0.466-0.871-0.121
		c-0.58-0.551-1.672-1.449-3.186-2.622l-0.621-0.481l-0.168,0.67l-0.171,0.669l-0.667-0.648c-0.368-0.356-1.433-1.172-2.365-1.812
		c-0.934-0.641-1.802-1.236-1.927-1.324c-0.169-0.119-0.271,0.015-0.4,0.521l-0.172,0.683l-0.75-0.773
		c-0.721-0.747-3.569-2.787-3.722-2.67c-0.04,0.031-0.101,0.264-0.134,0.518c-0.055,0.429-0.135,0.395-1.083-0.458
		c-1.239-1.114-2.169-1.761-2.339-1.628c-0.071,0.054-0.134,0.272-0.142,0.489c-0.023,0.639-0.265,0.643-0.755,0.01
		c-0.49-0.632-2.195-2.088-2.49-2.126c-0.096-0.012-0.222,0.26-0.278,0.604c-0.055,0.348-0.144,0.661-0.196,0.702
		c-0.052,0.04-0.379-0.193-0.727-0.517c-0.588-0.549-2.814-2.028-3.109-2.066c-0.071-0.008-0.175,0.231-0.231,0.533
		c-0.12,0.673-0.401,0.616-1.321-0.269c-0.338-0.324-0.817-0.648-1.064-0.723c-0.437-0.126-0.453-0.107-0.563,0.57l-0.115,0.703
		L28.9,56.476c-0.562-0.728-2.526-2.264-2.715-2.12c-0.096,0.073-0.22,0.405-0.272,0.736l-0.097,0.602l-0.596-0.551
		c-0.576-0.535-2.186-1.54-3.012-1.88c-0.396-0.163-0.412-0.149-0.515,0.474l-0.107,0.645l-0.494-0.457
		c-0.563-0.52-1.879-1.225-2.22-1.19c-0.124,0.014-0.244,0.164-0.266,0.337c-0.079,0.596-0.381,0.564-1.391-0.145
		c-0.558-0.393-1.248-0.786-1.535-0.875l-0.521-0.164l0.005,0.592l0.006,0.591l-0.479-0.385c-0.005-0.003-0.012-0.008-0.017-0.012
		c-0.001,0.11-0.009,0.217-0.009,0.327c0,2.043,0.164,4.048,0.472,6.006c0.245,0.051,0.485,0.087,0.696,0.104
		c0.459,0.035,0.524,0.09,0.422,0.366c-0.066,0.18-0.2,0.394-0.302,0.472c-0.321,0.256,0.405,0.621,1.972,0.999
		c0.839,0.202,1.546,0.394,1.571,0.427c0.025,0.031-0.135,0.265-0.355,0.518c-0.546,0.626-0.193,0.816,2.006,1.08l1.766,0.212
		l-0.475,0.532c-0.309,0.347-0.407,0.621-0.278,0.789c0.109,0.142,1.306,0.393,2.659,0.559l2.463,0.303l-0.465,0.646
		c-0.256,0.355-0.419,0.707-0.363,0.781c0.142,0.183,2.018,0.316,3.226,0.229l0.99-0.07l-0.246,0.53
		c-0.134,0.292-0.177,0.618-0.097,0.727c0.186,0.246,2.732,0.442,3.709,0.287c0.908-0.146,1.012-0.025,0.507,0.573
		c-0.379,0.454-0.375,0.479,0.153,0.725c0.303,0.144,1.229,0.237,2.06,0.214c0.831-0.024,1.557,0.013,1.611,0.086
		c0.054,0.069-0.046,0.312-0.222,0.531c-0.177,0.225-0.274,0.47-0.217,0.543c0.223,0.29,2.109,0.517,3.404,0.411
		c1.015-0.082,1.345-0.029,1.314,0.211c-0.024,0.175-0.136,0.393-0.249,0.479c-0.557,0.429,0.579,0.652,2.748,0.542
		c0.938-0.049,1.764-0.086,1.833-0.082c0.072,0.002,0.061,0.164-0.022,0.358c-0.131,0.307-0.083,0.388,0.365,0.597
		c0.445,0.207,2.536,0.286,4.591,0.174c0.482-0.024,0.549,0.013,0.328,0.191c-0.149,0.121-0.25,0.249-0.225,0.283
		c0.203,0.264,1.28,0.562,2.023,0.562c2.747,0.002,3.235,0.052,3.783,0.376c0.329,0.195,1.458,0.425,2.507,0.508
		c3.288,0.262,5.414,0.587,6.792,1.043c0.732,0.239,1.367,0.484,1.411,0.54c0.045,0.057,0.414,0.205,0.819,0.33l0.741,0.225
		l-0.858,0.034c-1.414,0.057-4.775-0.307-6.141-0.664c-0.705-0.184-1.742-0.407-2.308-0.495c-1.017-0.158-1.027-0.154-0.947,0.331
		c0.081,0.488,0.079,0.488-0.519,0.212c-0.849-0.396-4.514-1.336-4.594-1.178c-0.036,0.071-0.032,0.354,0.008,0.627
		c0.042,0.271,0.008,0.414-0.071,0.316c-0.201-0.244-4.037-1.286-4.221-1.146c-0.079,0.06-0.069,0.359,0.021,0.663l0.168,0.554
		l-0.734-0.282c-0.882-0.341-3.749-0.92-3.917-0.791c-0.065,0.051-0.074,0.369-0.019,0.711c0.054,0.34,0.028,0.534-0.056,0.432
		c-0.212-0.259-3.653-0.806-3.895-0.62c-0.108,0.082-0.135,0.416-0.061,0.744c0.129,0.574,0.121,0.585-0.256,0.353
		c-0.461-0.283-3.913-0.88-4.128-0.714c-0.083,0.064-0.059,0.388,0.053,0.724l0.2,0.606l-0.979-0.237
		c-0.983-0.235-3.949-0.534-4.107-0.412c-0.046,0.035,0.023,0.371,0.153,0.745l0.24,0.679l-1.321-0.168
		c-0.727-0.092-1.681-0.154-2.119-0.134l-0.797,0.03l0.167,0.586c0.096,0.334,0.068,0.522-0.063,0.441
		c-0.263-0.165-3.013-0.271-3.203-0.125c-0.039,0.029-0.047,0.118-0.032,0.228c2.958,2.988,6.407,5.489,10.213,7.38
		c0.938-0.201,2.041-0.517,2.499-0.752c0.076-0.038,0.199-0.102,0.275-0.137c0.076-0.036,0.077,0.205,0.004,0.536
		c-0.127,0.565-0.102,0.614,0.403,0.791c0.403,0.139,0.875,0.03,1.879-0.436c0.737-0.34,1.45-0.705,1.584-0.808
		c0.208-0.161,0.238-0.112,0.203,0.33c-0.04,0.484-0.007,0.527,0.545,0.72c0.563,0.195,1.489-0.066,3.172-0.898
		c0.483-0.237,0.631-0.223,0.738,0.071c0.232,0.639,1.093,0.557,2.798-0.266c0.882-0.424,1.654-0.688,1.717-0.584
		c0.064,0.104,0.285,0.305,0.492,0.445c0.316,0.216,0.628,0.128,1.941-0.558c0.861-0.446,1.832-0.986,2.159-1.195
		c0.577-0.371,1.439-0.451,1.494-0.137c0.014,0.088,0.396,0.002,0.845-0.187c1.787-0.749,6.019-2.319,7.937-2.946l2.022-0.661
		l-2.376,1.689c-2.602,1.849-3.372,2.575-2.979,2.814c0.197,0.12,0.116,0.2-0.407,0.404c-0.362,0.139-1.133,0.692-1.737,1.251
		c-1.011,0.935-1.061,1.021-0.74,1.274c0.323,0.253,0.283,0.323-0.551,0.985c-0.494,0.392-1.135,1.033-1.427,1.427
		c-0.15,0.201-0.247,0.346-0.309,0.459c4.549-0.612,8.842-2.018,12.738-4.077c0.654-1.295,1.83-3.939,2.295-5.231
		c0.256-0.713,0.572-1.377,0.701-1.477c0.234-0.181,1.32,1.101,2.685,3.024c0.255-0.199,0.513-0.395,0.762-0.6
		c-0.226-0.327-0.45-0.653-0.677-0.969c-2.337-3.275-1.816-2.887-0.808-3.893c0.414-0.41,1.202-0.758,3.184-1.402
		c2.3-0.747,4.268-1.446,5.85-2.074c2.542-3.802,4.415-8.084,5.469-12.68C89.967,62.005,89.572,62.471,89.44,62.684z M66.414,61.123
		c-0.361,0.059-0.373,0.145-0.082,0.635c0.183,0.312,0.218,0.442,0.081,0.29c-0.154-0.165-0.315-0.177-0.405-0.025
		c-0.148,0.242-0.992-2.661-0.926-3.183c0.018-0.131,0.418,0.315,0.89,0.988C66.769,60.964,66.802,61.058,66.414,61.123z
		 M68.44,67.1c-0.188-0.17-0.438-0.851-0.56-1.532l-0.217-1.226l0.478,0.823c0.263,0.454,0.536,1.127,0.609,1.495
		C68.906,67.462,68.884,67.497,68.44,67.1z"/>
</g>
</svg>
