<?xml version="1.0" encoding="utf-8"?>
<!-- Generator: Adobe Illustrator 16.0.0, SVG Export Plug-In . SVG Version: 6.00 Build 0)  -->
<!DOCTYPE svg PUBLIC "-//W3C//DTD SVG 1.1//EN" "http://www.w3.org/Graphics/SVG/1.1/DTD/svg11.dtd">
<svg version="1.1" id="Layer_1" xmlns="http://www.w3.org/2000/svg" xmlns:xlink="http://www.w3.org/1999/xlink" x="0px" y="0px"
	 width="106px" height="106px" viewBox="0 0 106 106" enable-background="new 0 0 106 106" xml:space="preserve">
<g>
	<defs>
		<rect id="SVGID_1_" width="106" height="106"/>
	</defs>
	<clipPath id="SVGID_2_">
		<use xlink:href="#SVGID_1_"  overflow="visible"/>
	</clipPath>
	<path clip-path="url(#SVGID_2_)" fill="#3F5E8B" d="M103.022,53.985c0,27.614-22.387,50-50,50c-27.614,0-50-22.386-50-50
		c0-27.614,22.386-50,50-50C80.636,3.985,103.022,26.372,103.022,53.985"/>
	<path clip-path="url(#SVGID_2_)" fill="#FFFFFF" d="M26.44,33.101l20.371,25.817V45l27.43-0.202c0,0,6.654,8.471,0,18.153H44.592
		L30.27,44.732l-14.52,0.066l22.388,29.851h43.163c7.33-2.685,8.068-9.883,8.068-9.883V43.589c0,0,0.806-8.536-8.674-10.488H26.44z"
		/>
</g>
</svg>
