<?xml version="1.0" encoding="utf-8"?>
<!-- Generator: Adobe Illustrator 16.0.0, SVG Export Plug-In . SVG Version: 6.00 Build 0)  -->
<!DOCTYPE svg PUBLIC "-//W3C//DTD SVG 1.1//EN" "http://www.w3.org/Graphics/SVG/1.1/DTD/svg11.dtd">
<svg version="1.1" id="Layer_1" xmlns="http://www.w3.org/2000/svg" xmlns:xlink="http://www.w3.org/1999/xlink" x="0px" y="0px"
	 width="106px" height="106px" viewBox="0 0 106 106" enable-background="new 0 0 106 106" xml:space="preserve">
<g>
	<defs>
		<rect id="SVGID_1_" width="106" height="106"/>
	</defs>
	<clipPath id="SVGID_2_">
		<use xlink:href="#SVGID_1_"  overflow="visible"/>
	</clipPath>
	<path clip-path="url(#SVGID_2_)" fill="#E0DCD1" d="M103,53c0,27.614-22.386,50-50,50C25.386,103,3,80.614,3,53
		C3,25.386,25.386,3,53,3C80.614,3,103,25.386,103,53"/>
	<circle clip-path="url(#SVGID_2_)" fill="#F7921A" cx="60" cy="45.667" r="6.5"/>
	<circle clip-path="url(#SVGID_2_)" fill="#F7921A" cx="60" cy="76.5" r="6.5"/>
	<path clip-path="url(#SVGID_2_)" fill="#494949" d="M60.054,67.584c-4.205,0-7.729,2.941-8.639,6.874H32.75v-26.75h18.665
		c0.911,3.932,4.434,6.875,8.639,6.875c4.894,0,8.875-3.981,8.875-8.875s-3.981-8.875-8.875-8.875c-4.205,0-7.729,2.943-8.639,6.875
		H28.75v34.75h22.665c0.911,3.932,4.434,6.875,8.639,6.875c4.894,0,8.875-3.981,8.875-8.875S64.947,67.584,60.054,67.584z
		 M60.054,40.833c2.688,0,4.875,2.187,4.875,4.875s-2.187,4.875-4.875,4.875s-4.875-2.187-4.875-4.875S57.365,40.833,60.054,40.833z
		 M60.054,81.333c-2.688,0-4.875-2.187-4.875-4.875s2.187-4.874,4.875-4.874s4.875,2.186,4.875,4.874S62.742,81.333,60.054,81.333z"
		/>
	<circle clip-path="url(#SVGID_2_)" fill="#F2D453" cx="44.167" cy="30" r="6.5"/>
	<circle clip-path="url(#SVGID_2_)" fill="#F2D453" cx="44.167" cy="60.833" r="6.5"/>
	<path clip-path="url(#SVGID_2_)" fill="#494949" d="M44.375,38.832c4.205,0,7.729-2.941,8.639-6.874h18.665v26.75H53.014
		c-0.91-3.933-4.434-6.875-8.639-6.875c-4.894,0-8.875,3.981-8.875,8.875s3.981,8.875,8.875,8.875c4.205,0,7.729-2.943,8.639-6.875
		h22.665v-34.75H53.014c-0.91-3.932-4.434-6.875-8.639-6.875c-4.894,0-8.875,3.981-8.875,8.875S39.481,38.832,44.375,38.832z
		 M44.375,65.583c-2.688,0-4.875-2.188-4.875-4.875c0-2.688,2.187-4.875,4.875-4.875s4.875,2.187,4.875,4.875
		C49.25,63.396,47.063,65.583,44.375,65.583z M44.375,25.083c2.688,0,4.875,2.187,4.875,4.875s-2.187,4.874-4.875,4.874
		S39.5,32.646,39.5,29.958S41.687,25.083,44.375,25.083z"/>
</g>
</svg>
