<?xml version="1.0" encoding="utf-8"?>
<!-- Generator: Adobe Illustrator 16.0.0, SVG Export Plug-In . SVG Version: 6.00 Build 0)  -->
<!DOCTYPE svg PUBLIC "-//W3C//DTD SVG 1.1//EN" "http://www.w3.org/Graphics/SVG/1.1/DTD/svg11.dtd">
<svg version="1.1" id="Layer_1" xmlns="http://www.w3.org/2000/svg" xmlns:xlink="http://www.w3.org/1999/xlink" x="0px" y="0px"
	 width="106px" height="106px" viewBox="0 0 106 106" enable-background="new 0 0 106 106" xml:space="preserve">
<g>
	<defs>
		<rect id="SVGID_1_" width="106" height="106"/>
	</defs>
	<clipPath id="SVGID_2_">
		<use xlink:href="#SVGID_1_"  overflow="visible"/>
	</clipPath>
	<path clip-path="url(#SVGID_2_)" fill="#3E4B52" d="M103,53c0,27.614-22.386,50-50,50C25.386,103,3,80.614,3,53
		C3,25.386,25.386,3,53,3C80.614,3,103,25.386,103,53"/>
	<path clip-path="url(#SVGID_2_)" fill="#3E4B52" d="M92.385,53.001c0,21.75-17.633,39.384-39.384,39.384
		c-21.751,0-39.385-17.634-39.385-39.384c0-21.752,17.634-39.385,39.385-39.385C74.752,13.616,92.385,31.249,92.385,53.001"/>
	<path clip-path="url(#SVGID_2_)" fill-rule="evenodd" clip-rule="evenodd" fill="#FFFFFF" d="M46.029,77.446
		c-3.214-0.33-6.392-1.053-7.952-3.078c-0.274-0.354-0.274-0.89-0.865-1.029c-0.05,1.679,1.004,3.012,1.971,4
		c0.504,0.514,1.097,0.949,1.725,1.329c0.642,0.39,0.62,0.604-0.042,0.378c-2.024-0.694-3.927-1.523-5.446-2.779
		c-1.196,1.976-2.957,3.575-4.736,5.095c-0.398,0.34-0.393,0.006-0.053-0.476c0.813-1.15,2.933-3.221,3.42-5.015
		c0.235-0.864-0.238-2.392-0.875-2.444c-0.654-0.055-1.078,0.795-1.347,1.219c-0.394,0.622-0.628,1.125-0.919,1.667
		c-0.747-1.587-0.115-3.517,0.767-4.419c-1.475-1.563-2.912-3.169-4.507-4.6c-0.647-0.58-0.42-1.005,0.363-0.643
		c2.351,1.088,4.507,2.466,5.913,4.336c-0.736-2.539-1.598-5.19-2.577-7.421c-0.218-0.498,0.036-0.609,0.377-0.188
		c1.578,1.949,2.97,4.107,4.158,6.491c-0.241-3.447-0.142-6.732,1.135-8.75c0.089-0.14,0.179-0.525,0.448-0.429
		c0.412,1.246,0.705,2.351,1.214,3.705c0.206,0.548,1.145,3.159,1.852,3.063c0.473-0.064,0.57-1.216,0.624-2.122
		c0.228-3.812-0.328-8.194-0.576-11.687c0.567-0.599,1.33-1.355,1.915-1.924c0.197-0.192,0.425-0.528,0.649-0.44
		c-0.052,0.867,0.07,1.779,0.08,2.689c0.026,2.343,0.071,4.926,0.96,6.412c0.736-0.604,0.96-1.688,1.202-2.625
		c0.788-3.048,1.26-6.499,1.754-9.726c1.332-1.205,2.873-2.606,4.168-3.799c0.161-0.149,0.291-0.44,0.519-0.365
		c0.346,1.561,0.279,3.584,1.318,4.372c0.858-0.895,1.064-2.195,1.29-3.506c0.104-0.611,0.191-1.348,0.292-2.036
		c0.098-0.683,0.056-1.574,0.287-2.104c0.287-0.656,1.771-1.597,2.505-2.225c5.958-5.103,12.324-10.358,19.573-13.874
		c1.598,1.338,2.656,3.803,2.593,6.727c-0.055,2.493-1.096,4.745-2.196,6.586c-1.115,1.865-2.489,3.552-3.822,5.194
		c-1.855,2.284-4.063,5.013-6.054,7.471c-0.551,0.682-1.609,2.229-2.157,2.409c-0.391,0.129-0.857-0.002-1.279,0.003
		c-1.954,0.022-3.951,0.293-4.559,1.598c0.901,0.966,2.96,0.639,4.685,0.686c-2.303,3.415-4.899,6.795-7.449,10.242
		c-0.326,0.439-0.782,1.358-1.132,1.477c-0.69,0.233-2.125-0.106-3.238-0.091c-4.517,0.058-9.658,0.546-11.4,3.321
		c5.671,0.438,11.373,0.842,17.485,0.787c-4.845,2.698-13.199,1.703-18.668,0.962c1.145,2.95,3.643,4.392,6.666,5.245
		C46.646,77.274,46.649,77.511,46.029,77.446 M70.304,34.68C61.661,44.344,53.107,54.087,45.56,64.73
		c4.378-4.632,9.073-9.203,13.226-14.197C62.958,45.517,66.531,40.009,70.304,34.68"/>
</g>
</svg>
