<?xml version="1.0" encoding="utf-8"?>
<!-- Generator: Adobe Illustrator 16.0.0, SVG Export Plug-In . SVG Version: 6.00 Build 0)  -->
<!DOCTYPE svg PUBLIC "-//W3C//DTD SVG 1.1//EN" "http://www.w3.org/Graphics/SVG/1.1/DTD/svg11.dtd">
<svg version="1.1" id="Layer_1" xmlns="http://www.w3.org/2000/svg" xmlns:xlink="http://www.w3.org/1999/xlink" x="0px" y="0px"
	 width="106px" height="106px" viewBox="0 0 106 106" enable-background="new 0 0 106 106" xml:space="preserve">
<g>
	<defs>
		<rect id="SVGID_1_" width="106" height="106"/>
	</defs>
	<clipPath id="SVGID_2_">
		<use xlink:href="#SVGID_1_"  overflow="visible"/>
	</clipPath>
	<path clip-path="url(#SVGID_2_)" fill="#84A3AF" d="M103,53c0,27.614-22.386,50-50,50C25.386,103,3,80.614,3,53
		C3,25.386,25.386,3,53,3C80.614,3,103,25.386,103,53"/>
	<path clip-path="url(#SVGID_2_)" fill="#658FA1" d="M99.25,53c0,25.543-20.707,46.25-46.25,46.25C27.458,99.25,6.75,78.543,6.75,53
		C6.75,27.458,27.458,6.75,53,6.75C78.543,6.75,99.25,27.458,99.25,53"/>
	<path clip-path="url(#SVGID_2_)" fill="#FFFFFF" d="M76.393,86.714c-2.101-2.113-4.91-3.416-8.432-3.907
		c-2.31-0.375-7.363-0.669-15.158-0.88c-4.24-0.126-6.889-0.272-7.95-0.44c-1.816-0.262-3.037-0.693-3.662-1.293
		c-0.625-0.598-0.937-1.217-0.937-1.854c0-0.748,0.294-1.655,0.883-2.724c0.587-1.068,1.715-2.314,3.384-3.736
		c2.681,0.768,5.308,1.151,7.876,1.151c6.23,0,11.197-1.725,14.9-5.179c3.701-3.45,5.553-7.603,5.553-12.457
		c0-3.87-0.883-7.109-2.644-9.72h7.87l2.567-7.431h-0.796c-0.373,0.643-0.808,1.141-1.308,1.491
		c-0.502,0.35-1.063,0.583-1.683,0.697c-0.623,0.114-1.705,0.171-3.248,0.171h-7.476l-0.05-0.06c0.916-0.852,3.11-3.172,6.594-6.969
		c2.375-2.589,4.091-5.043,5.148-7.361c0.688-1.474,1.031-2.947,1.031-4.421c0-2.06-0.79-3.849-2.369-5.366
		c-1.58-1.517-3.549-2.275-5.907-2.275c-2.217,0-4.062,0.709-5.543,2.125c-1.478,1.417-2.396,3.45-2.755,6.097h0.793
		c0.542-1.614,1.382-2.84,2.517-3.675c1.134-0.835,2.416-1.254,3.844-1.254c1.571,0,2.92,0.593,4.048,1.779
		c1.129,1.186,1.693,2.7,1.693,4.543c0,2.418-1.028,5.086-3.087,8.004c-1.512,2.147-3.838,4.753-6.967,7.814
		c-3.555-2.25-7.727-3.379-12.521-3.379c-6.054,0-11.021,1.855-14.9,5.565c-3.877,3.709-5.817,8.138-5.817,13.285
		c0,3.37,0.849,6.446,2.548,9.229c1.699,2.781,4.136,4.949,7.309,6.5c-3.891,3.258-6.374,5.777-7.451,7.556
		c-1.076,1.783-1.614,3.335-1.614,4.659c0,1.176,0.407,2.227,1.22,3.153c0.812,0.929,2.202,1.979,4.167,3.154
		c-3.603,3.735-5.538,5.774-5.802,6.114c-0.651,0.807-1.222,1.551-1.73,2.243c1.698,0.856,3.445,1.629,5.247,2.29
		c-0.006-0.09-0.019-0.178-0.019-0.269c0-1.392,0.456-2.913,1.37-4.564c0.913-1.654,2.263-3.439,4.053-5.355
		c4.577,0.649,11.122,1.092,19.634,1.322c5.825,0.149,9.724,0.637,11.69,1.463c1.928,0.823,2.894,2.211,2.894,4.164
		c0,0.346-0.034,0.688-0.088,1.026c1.44-0.72,2.841-1.507,4.198-2.357c0.02-0.285,0.031-0.572,0.031-0.86
		C79.545,91.43,78.492,88.827,76.393,86.714z M44.578,42.364c1.885-2.226,4.222-3.339,7.011-3.339c3.015,0,5.483,1.246,7.405,3.736
		c2.6,3.396,3.9,8.094,3.9,14.092c0,4.604-0.923,7.981-2.771,10.131c-1.847,2.15-4.203,3.226-7.065,3.226
		c-3.016,0-5.503-1.244-7.462-3.735c-2.563-3.283-3.844-7.903-3.844-13.866C41.752,48.005,42.695,44.592,44.578,42.364z"/>
</g>
</svg>
