<?xml version="1.0" encoding="utf-8"?>
<!-- Generator: Adobe Illustrator 16.0.0, SVG Export Plug-In . SVG Version: 6.00 Build 0)  -->
<!DOCTYPE svg PUBLIC "-//W3C//DTD SVG 1.1//EN" "http://www.w3.org/Graphics/SVG/1.1/DTD/svg11.dtd">
<svg version="1.1" id="Layer_1" xmlns="http://www.w3.org/2000/svg" xmlns:xlink="http://www.w3.org/1999/xlink" x="0px" y="0px"
	 width="106px" height="106px" viewBox="0 0 106 106" enable-background="new 0 0 106 106" xml:space="preserve">
<g>
	<defs>
		<rect id="SVGID_1_" width="106" height="106"/>
	</defs>
	<clipPath id="SVGID_2_">
		<use xlink:href="#SVGID_1_"  overflow="visible"/>
	</clipPath>
	<path clip-path="url(#SVGID_2_)" fill="#FFC93D" d="M94.743,25.485c-0.102,0.308-0.236,0.724-0.399,1.23
		c-2.077-3.262-4.528-6.26-7.296-8.936c0.148-0.445,0.272-0.809,0.356-1.042c-0.709-0.673-1.436-1.329-2.184-1.96
		c-0.109,0.347-0.218,0.692-0.327,1.04c-2.575-2.211-5.377-4.167-8.376-5.811c0.122-0.409,0.22-0.744,0.287-0.987
		C69.727,5.181,61.618,3,53,3C25.386,3,3,25.386,3,53c0,10.677,3.357,20.563,9.058,28.685c0.095-0.312,0.22-0.724,0.368-1.208
		c2.142,3.156,4.644,6.048,7.445,8.619c-0.135,0.416-0.255,0.78-0.345,1.041c0.722,0.65,1.467,1.274,2.226,1.883
		c0.104-0.34,0.209-0.686,0.312-1.026c2.63,2.145,5.491,4.014,8.534,5.581c-0.116,0.381-0.217,0.711-0.297,0.972
		C37.114,101.025,44.824,103,53,103c27.614,0,50-22.386,50-50C103,42.832,99.957,33.379,94.743,25.485z"/>
	<g clip-path="url(#SVGID_2_)">
		<path fill="#FFFFFF" d="M41.209,59.853c-0.527-1.661-4.19-13.744-4.853-15.834c-4.834,15.898-9.803,32.213-14.604,48.001
			c2.643,2.119,5.505,3.973,8.548,5.526c1.373-4.464,8.34-27.666,10.924-36.121C41.391,60.879,41.381,60.39,41.209,59.853z"/>
		<path fill="#FFFFFF" d="M72.371,80.415c-3.582-11.736-7.163-23.475-10.745-35.212c-2.027-6.643-4.048-13.288-6.089-19.926
			c-0.698-2.273-2.615-3.646-5.005-3.652c-1.685-0.004-3.371-0.005-5.056,0.003c-0.341,0.001-0.703-0.081-1.007,0.14
			c-0.193,0.338,0.006,0.635,0.093,0.924c0.744,2.459,1.509,4.912,2.26,7.368c3.312,10.826,6.621,21.653,9.93,32.479
			c1.937,6.337,3.906,12.664,5.794,19.017c0.735,2.474,2.812,3.819,5.267,3.885c1.717,0.045,3.435,0.011,5.15,0.007
			c0.251-0.001,0.512,0.038,0.787-0.164c0.061-0.336-0.073-0.602-0.153-0.867C73.198,83.08,72.779,81.75,72.371,80.415z"/>
		<path fill="#FFFFFF" d="M58.239,76.266c-2.615-8.579-5.226-17.16-7.836-25.742c-1.494-4.913-2.978-9.829-4.478-14.74
			c-1.102-3.608-2.2-7.217-3.343-10.812c-0.604-1.9-2.568-3.316-4.543-3.341c-1.97-0.024-3.941-0.006-5.912-0.004
			c-0.188,0-0.385-0.02-0.541,0.133c-0.065,0.256,0.02,0.492,0.096,0.737c0.354,1.151,0.692,2.308,1.044,3.459
			c2.604,8.519,5.211,17.036,7.814,25.555c1.75,5.729,3.493,11.458,5.247,17.186c1.345,4.395,2.704,8.785,4.05,13.179
			c0.188,0.617,0.477,1.158,0.903,1.651c1.19,1.375,2.724,1.91,4.485,1.922c1.557,0.01,3.114,0.005,4.672-0.002
			c0.312-0.002,0.635,0.065,0.987-0.129c0.083-0.375-0.063-0.663-0.156-0.966C59.895,81.659,59.061,78.963,58.239,76.266z"/>
		<path fill="#FFFFFF" d="M71.196,69.45c1.484,4.815,2.954,9.636,4.425,14.454c0.065,0.212,0.072,0.448,0.574,0.54
			c1.188-3.058,16.471-52.678,18.548-58.959c-2.108-3.192-4.574-6.124-7.339-8.747c-1.543,4.29-14.806,46.819-16.194,51.224
			C71.051,68.467,71.04,68.941,71.196,69.45z"/>
		<path fill="#FFFFFF" d="M34.751,38.669c-1.426-4.639-4.336-14.636-4.777-14.852c-0.373,0.388-0.569,0.874-0.725,1.389
			c-0.977,3.217-1.957,6.433-2.937,9.649c-2.757,9.053-12.624,41.464-14.254,46.83c2.169,3.091,4.671,5.93,7.468,8.452
			c1.794-5.234,13.261-43.185,15.231-49.604C34.953,39.896,34.946,39.302,34.751,38.669z"/>
		<path fill="#FFFFFF" d="M64.747,48.39c1.545,4.998,3.069,10.003,4.596,15.007c0.065,0.211,0.082,0.44,0.42,0.519
			c5.143-16.35,10.288-32.703,15.458-49.138c-2.595-2.19-5.409-4.127-8.416-5.758c-1.113,4.025-10.227,32.292-12.043,37.983
			C64.61,47.477,64.597,47.905,64.747,48.39z"/>
	</g>
</g>
</svg>
