<?xml version="1.0" encoding="utf-8"?>
<!-- Generator: Adobe Illustrator 16.0.0, SVG Export Plug-In . SVG Version: 6.00 Build 0)  -->
<!DOCTYPE svg PUBLIC "-//W3C//DTD SVG 1.1//EN" "http://www.w3.org/Graphics/SVG/1.1/DTD/svg11.dtd">
<svg version="1.1" id="Layer_1" xmlns="http://www.w3.org/2000/svg" xmlns:xlink="http://www.w3.org/1999/xlink" x="0px" y="0px"
	 width="106px" height="106px" viewBox="0 0 106 106" enable-background="new 0 0 106 106" xml:space="preserve">
<g>
	<defs>
		<rect id="SVGID_1_" width="106" height="106"/>
	</defs>
	<clipPath id="SVGID_2_">
		<use xlink:href="#SVGID_1_"  overflow="visible"/>
	</clipPath>
	<g clip-path="url(#SVGID_2_)">
		<path fill="#7CC245" d="M44.501,90.799l-6.361-13.217L26.744,95.533c0.992,0.613,2.002,1.199,3.037,1.745
			c1.299,0.686,2.631,1.317,3.997,1.887c4.27,1.78,8.839,2.98,13.611,3.514l0,0c0.975,0.109,1.958,0.188,2.947,0.243L44.501,90.799z
			"/>
		<path fill="#FCCB32" d="M101.18,39.637c-0.315-1.14-0.684-2.256-1.076-3.361l-35.157,31.05l-4.851,4.284l0.399,3.958l2.665,26.386
			c1.75-0.363,3.469-0.812,5.146-1.351C88.432,94.138,103,75.273,103,53C103,48.37,102.357,43.893,101.18,39.637z"/>
		<polygon fill="#EE3F26" points="32.055,79.66 39.812,95.778 66.751,71.986 61.87,23.647 		"/>
		<polygon fill="#CF3627" points="35.46,77.895 61.142,29.647 61.327,31.482 64.076,26.317 64.074,26.292 15.706,41.458 
			34.848,81.228 36.012,79.041 		"/>
		<path fill="#F05048" d="M42.142,91.778l5.247,10.9C49.232,102.885,51.102,103,53,103c5.34,0,10.481-0.846,15.307-2.396
			l-2.961-29.318L42.142,91.778z"/>
		<path fill="#FCCB32" d="M65.346,71.285l2.961,29.318C88.432,94.138,103,75.273,103,53c0-4.63-0.643-9.107-1.82-13.363
			L65.346,71.285z"/>
		<path fill="#2591D4" d="M58.481,3.305C56.681,3.108,54.854,3,53,3c-17.834,0-33.477,9.345-42.328,23.397
			c-2.231,3.542-4.013,7.389-5.308,11.454L18.64,42.95l42.5-13.325l0.016-0.005l4.562-24.974C63.368,4.03,60.953,3.575,58.481,3.305
			z"/>
		<path fill="#F47F22" d="M90.823,20.319c-4.834-5.59-10.882-10.096-17.739-13.108c-2.365-1.039-4.827-1.896-7.367-2.564
			l-4.562,24.974l-0.014,0.026l4.204,41.638l35.834-31.648C99.178,32.406,95.596,25.837,90.823,20.319z"/>
		<path fill="#4CAA4C" d="M35.46,77.895L18.64,42.95L5.365,37.851c-1.013,3.182-1.735,6.493-2.091,9.917C3.095,49.488,3,51.233,3,53
			c0,17.766,9.273,33.355,23.235,42.225c1.151,0.731,2.335,1.415,3.546,2.054l8.537-13.446L35.46,77.895z"/>
		<path fill="#7CC245" d="M42.142,91.778l-3.824-7.946l-8.537,13.446c1.299,0.686,2.631,1.317,3.997,1.887
			c4.27,1.78,8.839,2.98,13.611,3.514L42.142,91.778z"/>
		<g>
			<g>
				<path fill="#F47F22" d="M90.823,20.319c-4.834-5.59-10.882-10.096-17.739-13.108l-11.929,22.41L90.823,20.319z"/>
				<path fill="#F47F22" d="M61.142,29.647l4.204,41.638l35.834-31.648c-2.002-7.231-5.584-13.8-10.356-19.318l-29.668,9.302
					L61.142,29.647z"/>
				<polygon fill="#EE3F26" points="35.46,77.895 42.142,91.778 65.346,71.285 61.142,29.647 				"/>
				<path fill="#1E85CA" d="M61.14,29.625l-2.658-26.32C56.681,3.108,54.854,3,53,3c-17.834,0-33.477,9.345-42.328,23.397
					L18.64,42.95L61.14,29.625z"/>
				<polygon fill="#CF3627" points="61.14,29.625 18.64,42.95 35.46,77.895 61.142,29.647 				"/>
				<path fill="#35A9E1" d="M61.155,29.621L73.084,7.21c-4.554-2-9.459-3.344-14.603-3.905l2.658,26.32L61.155,29.621z"/>
				<path fill="#F05048" d="M42.142,91.778l5.247,10.9C49.232,102.885,51.102,103,53,103c5.34,0,10.481-0.846,15.307-2.396
					l-2.961-29.318L42.142,91.778z"/>
				<path fill="#FCCB32" d="M65.346,71.285l2.961,29.318C88.432,94.138,103,75.273,103,53c0-4.63-0.643-9.107-1.82-13.363
					L65.346,71.285z"/>
				<path fill="#7CC245" d="M33.778,99.165c4.27,1.78,8.839,2.98,13.611,3.514l-5.247-10.9L33.778,99.165z"/>
				<path fill="#0161AD" d="M10.672,26.397C6.696,32.71,4.084,39.97,3.273,47.768L18.64,42.95L10.672,26.397z"/>
				<path fill="#4CAA4C" d="M18.64,42.95L3.273,47.768C3.095,49.488,3,51.233,3,53c0,17.766,9.273,33.355,23.235,42.225l9.225-17.33
					L18.64,42.95z"/>
				<path fill="#51B34B" d="M35.46,77.895l-9.225,17.33c2.387,1.516,4.905,2.841,7.542,3.94l8.364-7.387L35.46,77.895z"/>
			</g>
			<g>
				<path fill="#444344" d="M62.196,13.994L61,17.5c10.416,5.642,20.511,15.676,25.994,24.419l3.589-1.081
					C84.717,31.28,73.636,20.188,62.196,13.994z"/>
				<path fill="#EE3F26" d="M79.566,5.871c-6.705,0-12.538,3.673-15.634,9.111c-0.403,0.708-0.767,1.444-1.072,2.208
					c-0.078,0.196-0.14,0.398-0.208,0.599c-0.062,0.182-0.132,0.36-0.189,0.543c9.379,5.46,18.322,14.28,23.68,22.285
					c0.079-0.031,0.162-0.054,0.241-0.086c0.597-0.245,1.171-0.531,1.731-0.838c0.427-0.234,0.848-0.477,1.254-0.741
					c4.932-3.21,8.2-8.756,8.2-15.079C97.569,13.931,89.51,5.871,79.566,5.871z"/>
				<path fill="#C03225" d="M62.652,17.789c-0.062,0.182-0.132,0.36-0.189,0.543c9.379,5.46,18.322,14.28,23.68,22.285
					c0.079-0.031,0.162-0.054,0.241-0.086c0.597-0.245,1.171-0.531,1.731-0.838C82.423,31.73,72.674,22.923,62.652,17.789z"/>
			</g>
		</g>
	</g>
</g>
</svg>
